<svg viewBox="97 97 294 330" xmlns="http://www.w3.org/2000/svg">
<path fill="#231f20" d="M298.7 363.86c0 18-14.64 32.63-32.63 32.63-18 0-32.63-14.64-32.63-32.63v-85.32c0-1.78 1.1-3.45 2.88-4.1l12.27-4.47a3.65 3.65 0 014.9 3.43l-.01 90.46a12.6 12.6 0 0012.59 12.6 12.6 12.6 0 0012.58-12.6V269.2c0-1.78 1.1-3.46 2.88-4.1l12.28-4.47a3.65 3.65 0 014.9 3.43l-.01 99.81M369 338.1a12.6 12.6 0 01-12.6 12.6 12.6 12.6 0 01-12.58-12.6v-58.43a12.6 12.6 0 0112.6-12.59A12.6 12.6 0 01369 279.67zm-12.59-91.06a32.7 32.7 0 00-32.66 32.73v142.34a3.65 3.65 0 004.88 3.43l12.28-4.46a4.38 4.38 0 002.9-4.12v-49.21a26.66 26.66 0 0012.57 2.98c18 0 32.63-14.64 32.63-32.64l.03-58.42c0-18-14.63-32.63-32.63-32.63M208.39 253.13V119.32a3.66 3.66 0 00-4.9-3.43l-12.27 4.47a4.38 4.38 0 00-2.88 4.1v133.82a3.65 3.65 0 004.9 3.43l12.27-4.47a4.38 4.38 0 002.88-4.1M98.02 217.5a32.68 32.68 0 0119.99-30.08l23.92-10.13a2.1 2.1 0 001.3-2.02v-17.25a9.16 9.16 0 00-12.3-8.61l-15.68 5.7a3.65 3.65 0 01-4.67-2.18l-4.2-11.54a3.65 3.65 0 012.18-4.67l15.17-6.13a37.25 37.25 0 0112.1-2.4 27.23 27.23 0 0127.46 27.2v87.28c0 17.99-14.64 32.63-32.64 32.63-17.99 0-32.63-14.64-32.63-32.63v-25.53m20.04 0v25.53a12.6 12.6 0 0012.6 12.58 12.6 12.6 0 0012.58-12.58V198.4l-17.8 7.64a12.6 12.6 0 00-7.38 11.45M278.4 117.05l-22.05 8.02a4.38 4.38 0 00-2.87 4.1v114.65c0 1.79-1.1 3.46-2.87 4.1l-12.28 4.47a3.65 3.65 0 01-4.9-3.42V120.1c0-4.89 3.07-9.06 7.39-10.7l30.72-11.17a3.65 3.65 0 014.68 2.18l4.36 11.97a3.65 3.65 0 01-2.18 4.67"/>
</svg>
