<svg viewBox="142 458 800 165" fill="none" xmlns="http://www.w3.org/2000/svg">
<path d="M387.9 545.516C391.425 546.062 394.131 547.452 396.018 549.687C397.905 551.921 398.849 554.777 398.849 558.252C398.849 562.473 397.334 565.999 394.305 568.829C391.326 571.61 386.708 573 380.451 573H351.403V520.117H379.558C385.665 520.117 390.159 521.433 393.039 524.065C395.969 526.697 397.434 529.949 397.434 533.822C397.434 536.603 396.614 539.061 394.976 541.196C393.337 543.331 390.978 544.771 387.9 545.516ZM377.621 527.714H361.756V542.388H377.621C383.828 542.388 386.931 539.905 386.931 534.939C386.931 532.854 386.211 531.141 384.771 529.8C383.331 528.41 380.948 527.714 377.621 527.714ZM378.515 565.403C381.891 565.403 384.374 564.683 385.963 563.243C387.552 561.753 388.347 559.817 388.347 557.433C388.347 555.05 387.552 553.163 385.963 551.772C384.424 550.382 382.04 549.687 378.813 549.687H361.756V565.403H378.515ZM434.843 573H424.489V520.117H434.843V573ZM509.705 566.892C504.392 571.957 497.316 574.49 488.478 574.49C479.639 574.49 472.563 571.957 467.25 566.892C461.937 561.828 459.28 555.05 459.28 546.559C459.28 538.018 461.937 531.24 467.25 526.225C472.563 521.16 479.639 518.628 488.478 518.628C497.316 518.628 504.392 521.16 509.705 526.225C515.018 531.24 517.675 538.018 517.675 546.559C517.675 555.05 515.018 561.828 509.705 566.892ZM474.996 561.008C478.323 564.583 482.817 566.371 488.478 566.371C494.138 566.371 498.607 564.583 501.885 561.008C505.211 557.433 506.875 552.617 506.875 546.559C506.875 540.501 505.211 535.684 501.885 532.109C498.607 528.534 494.138 526.746 488.478 526.746C482.817 526.746 478.323 528.534 474.996 532.109C471.719 535.684 470.08 540.501 470.08 546.559C470.08 552.567 471.719 557.383 474.996 561.008ZM582.52 520.117V525.108H562.112V573H556.153V525.108H535.745V520.117H582.52ZM653.758 520.117V573H647.874V548.421H612.42V573H606.536V520.117H612.42V543.43H647.874V520.117H653.758ZM723.132 573L708.98 550.655H691.178V573H685.294V520.117H710.767C713.995 520.117 716.8 520.539 719.184 521.383C721.567 522.228 723.38 523.394 724.621 524.884C725.912 526.374 726.831 527.988 727.377 529.726C727.973 531.414 728.271 533.276 728.271 535.312C728.271 538.788 727.228 541.891 725.143 544.622C723.057 547.303 719.805 549.041 715.385 549.836L730.058 573H723.132ZM691.178 525.108V545.665H710.097C714.268 545.665 717.297 544.697 719.184 542.76C721.12 540.823 722.089 538.316 722.089 535.237C722.089 532.159 721.145 529.701 719.258 527.863C717.372 526.026 714.318 525.108 710.097 525.108H691.178ZM754.054 520.117H759.938V552.219C759.938 557.383 761.478 561.53 764.556 564.658C767.684 567.786 772.029 569.35 777.591 569.35C783.152 569.35 787.472 567.786 790.551 564.658C793.679 561.53 795.243 557.383 795.243 552.219V520.117H801.202V552.517C801.202 559.121 799.116 564.434 794.945 568.457C790.824 572.479 785.039 574.49 777.591 574.49C770.142 574.49 764.358 572.503 760.236 568.531C756.115 564.509 754.054 559.171 754.054 552.517V520.117ZM851.286 574.564C843.689 574.564 837.78 573.025 833.559 569.946C829.338 566.818 826.756 562.399 825.813 556.688L831.995 555.794C832.79 560.164 834.776 563.566 837.954 565.999C841.181 568.382 845.675 569.574 851.435 569.574C861.912 569.574 867.151 566.197 867.151 559.444C867.151 556.316 866.183 554.007 864.246 552.517C862.31 550.978 859.181 549.886 854.861 549.24L843.018 547.601C833.187 546.112 828.271 541.419 828.271 533.524C828.271 528.857 830.133 525.207 833.857 522.575C837.581 519.894 842.77 518.553 849.424 518.553C863.129 518.553 870.925 523.891 872.812 534.567L866.704 535.833C865.91 531.612 864.097 528.484 861.267 526.448C858.486 524.412 854.489 523.394 849.275 523.394C844.558 523.394 840.883 524.239 838.252 525.927C835.67 527.615 834.378 529.974 834.378 533.003C834.378 535.783 835.247 537.919 836.985 539.408C838.723 540.848 841.554 541.891 845.476 542.537L857.096 544.175C862.508 545.019 866.555 546.583 869.236 548.868C871.918 551.152 873.258 554.503 873.258 558.923C873.258 563.739 871.372 567.563 867.598 570.393C863.824 573.174 858.387 574.564 851.286 574.564ZM936.895 520.117V525.108H916.487V573H910.528V525.108H890.12V520.117H936.895Z" fill="#1D1D1B"/>
<g clip-path="url(#clip0_136_233)">
<path d="M257.992 540.574C257.992 540.837 257.992 541.1 257.979 541.362C257.535 559.077 243.285 573.356 225.606 573.828C225.256 573.841 224.907 573.841 224.55 573.841C206.521 573.76 191.882 559.326 191.431 541.362C191.418 541.052 191.418 540.736 191.418 540.426C191.418 540.163 191.418 539.901 191.431 539.638C191.875 521.91 206.145 507.617 223.844 507.173C224.127 507.159 224.416 507.159 224.705 507.159C224.994 507.159 225.283 507.159 225.566 507.173C243.265 507.617 257.535 521.91 257.979 539.638C257.992 539.948 257.992 540.264 257.992 540.574Z" stroke="#010101" stroke-width="4.17949" stroke-miterlimit="10"/>
<path d="M257.992 540.574C257.992 540.837 257.992 541.1 257.979 541.362C257.535 559.077 243.285 573.356 225.606 573.828C225.256 573.841 224.907 573.841 224.55 573.841C206.521 573.76 191.882 559.326 191.431 541.362C191.418 541.052 191.418 540.736 191.418 540.426C191.418 540.163 191.418 539.901 191.431 539.638C191.875 521.91 206.145 507.617 223.844 507.173C224.127 507.159 224.416 507.159 224.705 507.159C224.994 507.159 225.283 507.159 225.566 507.173C243.265 507.617 257.535 521.91 257.979 539.638C257.992 539.948 257.992 540.264 257.992 540.574Z" stroke="#010101" stroke-width="4.17949" stroke-miterlimit="10"/>
<path d="M257.992 540.574C257.992 540.837 257.992 541.1 257.979 541.362C257.535 559.077 243.285 573.356 225.606 573.828C225.256 573.841 224.907 573.841 224.55 573.841C206.521 573.76 191.882 559.326 191.431 541.362C191.418 541.052 191.418 540.736 191.418 540.426C191.418 540.163 191.418 539.901 191.431 539.638C191.875 521.91 206.145 507.617 223.844 507.173C224.127 507.159 224.416 507.159 224.705 507.159C224.994 507.159 225.283 507.159 225.566 507.173C243.265 507.617 257.535 521.91 257.979 539.638C257.992 539.948 257.992 540.264 257.992 540.574Z" stroke="#010101" stroke-width="4.17949" stroke-miterlimit="10"/>
<path d="M257.992 540.574C257.992 540.837 257.992 541.1 257.979 541.362C257.535 559.077 243.285 573.356 225.606 573.828C225.256 573.841 224.907 573.841 224.55 573.841C206.521 573.76 191.882 559.326 191.431 541.362C191.418 541.052 191.418 540.736 191.418 540.426C191.418 540.163 191.418 539.901 191.431 539.638C191.875 521.91 206.145 507.617 223.844 507.173C224.127 507.159 224.416 507.159 224.705 507.159C224.994 507.159 225.283 507.159 225.566 507.173C243.265 507.617 257.535 521.91 257.979 539.638C257.992 539.948 257.992 540.264 257.992 540.574Z" stroke="#010101" stroke-width="4.17949" stroke-miterlimit="10"/>
<path d="M303.714 545.942C303.841 544.144 303.902 542.332 303.902 540.5C303.902 538.533 303.828 536.587 303.693 534.66C303.882 536.56 303.983 538.479 303.983 540.426C303.983 542.373 303.895 544.124 303.714 545.942Z" stroke="#010101" stroke-width="4.17949" stroke-miterlimit="10"/>
<path d="M145.199 540.5C145.199 543.47 145.36 546.394 145.683 549.276C145.246 546.441 145.017 543.538 145.017 540.574C145.017 537.792 145.219 535.064 145.609 532.39C145.34 535.058 145.199 537.759 145.199 540.5Z" stroke="#010101" stroke-width="4.17949" stroke-miterlimit="10"/>
<path d="M257.992 540.574C257.992 540.837 257.992 541.1 257.979 541.362C257.535 559.077 243.285 573.356 225.606 573.828C225.256 573.841 224.907 573.841 224.55 573.841C206.521 573.76 191.882 559.326 191.431 541.362C191.418 541.052 191.418 540.736 191.418 540.426C191.418 540.163 191.418 539.901 191.431 539.638C191.875 521.91 206.145 507.617 223.844 507.173C224.127 507.159 224.416 507.159 224.705 507.159C224.994 507.159 225.283 507.159 225.566 507.173C243.265 507.617 257.535 521.91 257.979 539.638C257.992 539.948 257.992 540.264 257.992 540.574Z" stroke="#010101" stroke-width="4.17949" stroke-miterlimit="10"/>
<path d="M280.87 517.431C280.87 525.581 279.141 533.327 276.035 540.325C270.998 551.688 262.31 561.077 251.463 566.991C243.756 571.201 234.96 573.659 225.606 573.828C243.285 573.356 257.535 559.077 257.979 541.362C257.992 541.1 257.992 540.837 257.992 540.574C257.992 540.264 257.992 539.948 257.979 539.638C257.831 530.316 255.43 521.54 251.295 513.834C245.424 502.882 236.056 494.092 224.685 488.966C217.617 485.774 209.769 483.996 201.505 483.996C191.922 483.996 182.898 486.387 174.996 490.603C159.455 498.888 148.232 514.238 145.609 532.377C149.624 492.765 182.669 461.762 223.098 461.041C223.582 461.027 224.066 461.021 224.55 461.021C225.035 461.021 225.519 461.027 226.003 461.041C226.326 461.041 226.655 461.061 226.978 461.075C247.374 461.937 264.966 473.67 274.125 490.637C278.429 498.605 280.87 507.732 280.87 517.431Z" stroke="#010101" stroke-width="4.17949" stroke-miterlimit="10"/>
<path d="M303.902 540.5C303.902 542.332 303.841 544.144 303.713 545.942C301.864 565.031 290.506 581.331 274.448 590.033C266.486 594.344 257.38 596.796 247.697 596.796C239.627 596.796 231.961 595.092 225.021 592.027C213.589 586.982 204.148 578.239 198.216 567.301C194.02 559.568 191.579 550.745 191.431 541.362C191.882 559.326 206.521 573.76 224.55 573.841C224.907 573.841 225.256 573.841 225.606 573.828C234.96 573.659 243.756 571.201 251.463 566.991C262.309 561.077 270.998 551.688 276.035 540.325C279.141 533.327 280.87 525.581 280.87 517.431C280.87 507.732 278.429 498.605 274.125 490.637C264.966 473.67 247.374 461.937 226.978 461.075C267.716 462.287 300.734 494.261 303.687 534.607C303.687 534.627 303.687 534.64 303.693 534.66C303.828 536.587 303.902 538.533 303.902 540.5Z" stroke="#010101" stroke-width="4.17949" stroke-miterlimit="10"/>
<path opacity="0.89" d="M303.714 545.942C301.004 586.12 268.49 618.1 228.141 619.878C227.825 619.905 227.503 619.912 227.18 619.925C226.85 619.946 226.527 619.952 226.198 619.959C225.647 619.973 225.102 619.979 224.55 619.979C224.12 619.979 223.683 619.973 223.253 619.959C202.588 619.434 184.686 607.761 175.332 590.72C170.901 582.665 168.386 573.417 168.386 563.569C168.386 555.419 170.114 547.673 173.221 540.675C178.298 529.225 187.08 519.782 198.042 513.874C205.741 509.719 214.517 507.307 223.844 507.173C206.145 507.617 191.875 521.91 191.431 539.638C191.418 539.901 191.418 540.163 191.418 540.426C191.418 540.736 191.418 541.052 191.431 541.362C191.579 550.745 194.02 559.568 198.217 567.301C204.148 578.239 213.589 586.982 225.021 592.027C231.961 595.092 239.627 596.796 247.697 596.796C257.38 596.796 266.486 594.344 274.448 590.033C290.506 581.331 301.864 565.031 303.714 545.942Z" stroke="#010101" stroke-width="4.17949" stroke-miterlimit="10"/>
<path d="M257.979 539.638C257.535 521.91 243.265 507.617 225.566 507.173C225.283 507.159 224.994 507.159 224.705 507.159C224.416 507.159 224.127 507.159 223.844 507.173C214.517 507.307 205.741 509.719 198.042 513.874C187.08 519.782 178.298 529.225 173.221 540.675C170.114 547.673 168.386 555.419 168.386 563.569C168.386 573.417 170.901 582.664 175.332 590.72C184.686 607.761 202.588 619.434 223.253 619.959C182.978 619.319 149.994 588.625 145.683 549.276C145.36 546.394 145.199 543.47 145.199 540.5C145.199 537.759 145.34 535.058 145.609 532.39V532.377C148.232 514.238 159.455 498.888 174.996 490.603C182.898 486.387 191.922 483.996 201.505 483.996C209.77 483.996 217.617 485.774 224.685 488.966C236.056 494.092 245.424 502.882 251.295 513.834C255.43 521.539 257.831 530.316 257.979 539.638Z" stroke="#010101" stroke-width="4.17949" stroke-miterlimit="10"/>
<path d="M257.992 540.574C257.992 540.837 257.992 541.1 257.979 541.362C257.535 559.077 243.285 573.356 225.606 573.828C225.256 573.841 224.907 573.841 224.55 573.841C206.521 573.76 191.882 559.326 191.431 541.362C191.418 541.052 191.418 540.736 191.418 540.426C191.418 540.163 191.418 539.901 191.431 539.638C191.875 521.91 206.145 507.617 223.844 507.173C224.127 507.159 224.416 507.159 224.705 507.159C224.994 507.159 225.283 507.159 225.566 507.173C243.265 507.617 257.535 521.91 257.979 539.638C257.992 539.948 257.992 540.264 257.992 540.574Z" stroke="#010101" stroke-width="4.17949" stroke-miterlimit="10"/>
</g>
<defs>
<clipPath id="clip0_136_233">
<rect width="163" height="163" fill="white" transform="translate(143 459)"/>
</clipPath>
</defs>
</svg>
