<svg height="132" width="544" viewBox="0 0 544 132" xmlns="http://www.w3.org/2000/svg" xmlns:xlink="http://www.w3.org/1999/xlink">
    <title>Kraftblock</title>
    <defs>
        <path d="M.1.8h130.7v131.1H.1z" id="a"/>
        <path d="M.1.9h183.4v47H.1z" id="c"/>
    </defs>
    <g fill="none" fill-rule="evenodd">
        <mask fill="#fff" id="b">
            <use xlink:href="#a"/>
        </mask>
        <path d="M0 .8V132h7.2l21-25.3 13.4-16.2 14.3-17.1H42.7l-32.5 39.1V11h110.5v110.8H56.4l-13.1-18.5-6.7 8.1 14.5 20.5h79.7V.8H0" fill="#000000" mask="url(#b)"/>
        <path d="M288.6 27.7H306c3.8 0 6.8-3.1 6.8-7v-6.6c0-3.8-3-6.8-6.8-6.8h-17.4v20.4zm16.1 6.3h-16v13h-7.9V.7H306c8 0 14.6 6.6 14.6 14.8v3.8c0 5.9-3.4 11-8.5 13.3l9.1 14.2H313L304.7 34zM381.1 32.5l-7.6-25.2h-6.8l-7.6 25.2h22zm2 6.5h-25.9l-2.4 8H347L360.9.7h18.5L393.3 47h-7.8l-2.4-8zM435 7.3v14.6h27v6.4h-27v18.6h-7.8V.8h38v6.5H435M537 6.3l-18.3 1.5v39.1h-7.8V7.8l-18.3-1.5V.8H537v5.5M239.7 111.3h-26.3V125h26.3c2.2 0 4-1.7 4-3.9v-5.9c0-2.2-1.8-3.9-4-3.9zm0-6.4a4 4 0 0 0 4-4v-5.2c0-2.2-1.8-4-4-4h-26.3V105h26.3zm8 3.2a12 12 0 0 1 3.7 8.5v3.2c0 6.4-5.3 11.7-11.7 11.7h-34.1V85.4h34.1c6.5 0 11.7 5.3 11.7 11.7v2.4c0 3.4-1.4 6.5-3.7 8.6z" fill="#000000"/>
        <g transform="translate(282 84)">
            <mask fill="#fff" id="d">
                <use xlink:href="#c"/>
            </mask>
            <path d="M41.1 41v6.5H.1V1.4h7.8V41h33.2M92.4 41.5c4.5 0 8-3.7 8-8.1v-18c0-4.4-3.5-8-8-8H77.8a8.2 8.2 0 0 0-8 8v18c0 4.4 3.5 8.1 8 8.1h14.6zM61.9 32V16.9C62 8 69.1.9 78 .9h14.5c8.8 0 15.9 7.1 15.9 16v15a16 16 0 0 1-16 16H77.9A16 16 0 0 1 62 32zM138.8 32V16.9c0-8.9 7.1-16 15.9-16h12.9c8.8 0 16 7.1 16 16v1.7h-7.9v-3.1c0-4.5-3.6-8.2-8.1-8.2h-12.9a8.2 8.2 0 0 0-8.1 8.2v17.9c0 4.4 3.6 8.1 8.1 8.1h12.9c4.5 0 8.1-3.7 8.1-8.1v-2.5h7.8v1a16 16 0 0 1-16 16h-12.8a16 16 0 0 1-16-16" fill="#000000" mask="url(#d)"/>
        </g>
        <path d="M540 85.4h-9.7l-26.4 31.7V85.4h-7.8v46h5.6l38.3-46M528.3 110.3l-4.9 6 10.7 15h9.1l-14.9-21M249.4.8h-9.7l-26.4 31.7V.8h-7.7v46h5.5l38.3-46M237.7 25.8l-4.9 5.9 10.7 15.1h9.2l-15-21" fill="#000000"/>
    </g>
</svg>
