<svg width="168" height="35" viewBox="0 0 168 35" fill="none" xmlns="http://www.w3.org/2000/svg">
    <path
        d="M24.5373 0.0274331C26.2354 -0.17434 27.8648 0.752263 28.5364 2.30161L31.9672 10.2161L35.6428 18.0231C36.3623 19.5514 35.9711 21.3642 34.6827 22.4721L28.101 28.1316L21.6987 33.9874C20.4453 35.1337 18.5742 35.3274 17.1063 34.4628L9.60777 30.0461L1.97527 25.8581C0.48112 25.0383 -0.284138 23.3453 0.0970831 21.703L2.04446 13.3138L3.72967 4.86973C4.05957 3.21671 5.45777 1.97667 7.16129 1.8263L15.8633 1.05814L24.5373 0.0274331Z"
        fill="url(#paint0_radial_4902_15556)"></path>
    <g transform="translate(46 0)">
        <path fill="rgb(16,37,57)" d="M8.663.265c1.421 0 2.672.275 3.752.824 1.099.53 1.942 1.298 2.53 2.302.606 1.005.909 2.17.909 3.496s-.303 2.492-.91 3.496c-.587.985-1.43 1.753-2.53 2.302-1.08.53-2.33.796-3.75.796H4.825v6.679H.563V.265h8.1ZM4.826 9.928h3.44c1.003 0 1.8-.275 2.387-.824.587-.55.88-1.288.88-2.217 0-.947-.293-1.696-.88-2.245-.588-.55-1.384-.824-2.388-.824H4.826v6.11ZM26.343.265c1.44 0 2.71.275 3.809.824 1.117.53 1.98 1.298 2.586 2.302.606 1.005.91 2.17.91 3.496 0 1.27-.304 2.397-.91 3.382a5.92 5.92 0 0 1-2.501 2.217l3.922 7.674h-4.718l-3.325-6.68h-3.61v6.68h-4.263V.265h8.1Zm-3.837 9.663h3.496c1.004 0 1.8-.275 2.388-.824.606-.55.909-1.288.909-2.217 0-.947-.303-1.696-.91-2.245-.587-.55-1.383-.824-2.387-.824h-3.496v6.11ZM55.13 10.212c0 1.914-.418 3.648-1.251 5.202a9.15 9.15 0 0 1-3.496 3.609c-1.497.872-3.202 1.307-5.116 1.307-1.914 0-3.619-.435-5.116-1.307a9.15 9.15 0 0 1-3.496-3.61c-.833-1.553-1.25-3.287-1.25-5.2 0-1.914.417-3.638 1.25-5.173.834-1.554 2-2.767 3.496-3.638C41.648.53 43.353.094 45.267.094c1.914 0 3.619.436 5.116 1.308 1.497.871 2.662 2.084 3.496 3.638.833 1.535 1.25 3.259 1.25 5.172Zm-15.377 0c0 1.251.228 2.369.682 3.354.455.985 1.1 1.762 1.933 2.33.834.55 1.8.825 2.899.825 1.08 0 2.037-.275 2.87-.824.834-.569 1.478-1.346 1.933-2.33.455-.986.682-2.104.682-3.355 0-1.25-.227-2.368-.682-3.353-.455-.986-1.099-1.753-1.932-2.302-.834-.569-1.791-.853-2.871-.853-1.099 0-2.065.284-2.899.853-.834.55-1.478 1.316-1.933 2.302-.454.985-.682 2.103-.682 3.353ZM61.093 13.68c.076.985.474 1.78 1.194 2.387.739.588 1.714.881 2.927.881 1.004 0 1.819-.208 2.444-.625.644-.436.967-1.033.967-1.79 0-.531-.18-.948-.54-1.251-.341-.322-.834-.569-1.478-.739-.626-.19-1.601-.417-2.928-.682-1.307-.247-2.406-.56-3.297-.938a5.479 5.479 0 0 1-2.188-1.734c-.55-.777-.824-1.8-.824-3.07 0-1.155.312-2.188.938-3.097.644-.91 1.525-1.62 2.643-2.132 1.137-.53 2.416-.796 3.837-.796 1.459 0 2.766.275 3.922.825 1.175.53 2.094 1.27 2.757 2.217a5.518 5.518 0 0 1 1.051 3.211H68.34c-.094-.852-.454-1.535-1.08-2.046-.625-.53-1.45-.796-2.472-.796-.948 0-1.705.199-2.274.597-.568.398-.853.966-.853 1.705 0 .53.17.948.512 1.25.341.285.824.522 1.45.711.625.17 1.591.38 2.898.625 1.327.247 2.445.56 3.354.938.91.36 1.64.92 2.189 1.677.568.74.852 1.734.852 2.985 0 1.212-.331 2.302-.995 3.268-.663.947-1.591 1.696-2.785 2.245-1.175.55-2.5.824-3.979.824-1.591 0-3.012-.284-4.263-.852-1.232-.588-2.198-1.393-2.899-2.416a6.113 6.113 0 0 1-1.08-3.439l4.178.057ZM75.474.265h4.263V20.16h-4.263V.265ZM102.035 10.212c0 1.914-.417 3.648-1.25 5.202a9.153 9.153 0 0 1-3.496 3.609c-1.497.872-3.202 1.307-5.116 1.307-1.914 0-3.619-.435-5.116-1.307a9.15 9.15 0 0 1-3.496-3.61c-.833-1.553-1.25-3.287-1.25-5.2 0-1.914.417-3.638 1.25-5.173.834-1.554 2-2.767 3.496-3.638C88.554.53 90.26.094 92.173.094c1.914 0 3.62.436 5.116 1.308 1.497.871 2.662 2.084 3.496 3.638.833 1.535 1.25 3.259 1.25 5.172Zm-15.376 0c0 1.251.228 2.369.682 3.354.455.985 1.1 1.762 1.933 2.33.834.55 1.8.825 2.9.825 1.08 0 2.036-.275 2.87-.824.833-.569 1.478-1.346 1.932-2.33.455-.986.682-2.104.682-3.355 0-1.25-.227-2.368-.682-3.353-.454-.986-1.099-1.753-1.932-2.302-.834-.569-1.79-.853-2.87-.853-1.1 0-2.066.284-2.9.853-.834.55-1.478 1.316-1.933 2.302-.454.985-.682 2.103-.682 3.353ZM104.617 20.16V.265h3.865l8.441 12.534V.265h4.207V20.16h-3.894l-8.441-12.534V20.16h-4.178ZM.754 23.624h6.663v1.242H4.786v7.284H3.385v-7.284H.754v-1.242ZM11.519 23.611h1.4v3.594h3.96V23.61h1.4v8.54h-1.4v-3.704h-3.96v3.703h-1.4v-8.539ZM22.88 23.624h5.566v1.242H24.28v2.363h3.435v1.206H24.28v2.473h4.312v1.242H22.88v-8.526ZM36.15 23.624c.593 0 1.113.113 1.56.34.446.22.791.537 1.035.95.252.407.377.882.377 1.426 0 .568-.15 1.068-.45 1.498-.3.43-.703.735-1.206.914l1.803 3.398h-1.56l-1.62-3.094h-1.9v3.094h-1.4v-8.526h3.361Zm-1.961 4.214h1.852c.503 0 .901-.134 1.193-.402.3-.276.451-.641.451-1.096 0-.455-.15-.816-.45-1.084-.293-.276-.691-.414-1.194-.414h-1.852v2.996ZM42.645 32.15l3.192-8.526h1.669l3.18 8.526h-1.5l-.803-2.107h-3.496l-.792 2.107h-1.45Zm2.632-3.3h2.716l-1.364-3.716-1.352 3.715ZM57.967 23.624c.584 0 1.1.113 1.547.34.446.22.791.537 1.035.95.244.407.365.882.365 1.426 0 .544-.121 1.023-.365 1.437a2.498 2.498 0 0 1-1.035.95c-.447.22-.963.33-1.547.33h-1.962v3.093h-1.4v-8.526h3.362Zm-1.962 4.214h1.84c.503 0 .901-.134 1.194-.402.3-.276.45-.641.45-1.096 0-.463-.146-.828-.438-1.096-.293-.268-.69-.402-1.194-.402h-1.852v2.996ZM65.037 23.624h5.567v1.242h-4.166v2.363h3.435v1.206h-3.435v2.473h4.312v1.242h-5.713v-8.526ZM76.298 23.624v4.945c0 .804.159 1.41.475 1.815.317.398.808.597 1.474.597.674 0 1.17-.199 1.486-.597.325-.406.487-1.01.487-1.815v-4.945h1.401v4.872c0 1.218-.288 2.144-.864 2.777-.569.634-1.405.95-2.51.95-1.096 0-1.928-.316-2.497-.95-.568-.633-.853-1.559-.853-2.777v-4.872h1.401ZM85.688 23.624h6.663v1.242h-2.63v7.284h-1.402v-7.284h-2.63v-1.242ZM96.453 23.624h1.401v8.526h-1.4v-8.526ZM102.132 27.887c0-.86.166-1.616.499-2.266a3.666 3.666 0 0 1 1.437-1.522c.626-.366 1.353-.549 2.181-.549.641 0 1.218.122 1.73.366.519.244.942.593 1.266 1.047.325.447.532.967.622 1.56h-1.401c-.138-.544-.406-.97-.804-1.28-.398-.308-.889-.462-1.474-.462-.528 0-.991.134-1.389.402-.398.26-.702.625-.913 1.096-.211.463-.317.999-.317 1.608 0 .6.106 1.137.317 1.608.211.47.515.84.913 1.108.398.26.861.39 1.389.39.585 0 1.072-.154 1.462-.463.398-.308.666-.735.804-1.279h1.4a3.495 3.495 0 0 1-.621 1.572 3.156 3.156 0 0 1-1.242 1.035c-.512.244-1.092.365-1.742.365-.828 0-1.555-.178-2.181-.535a3.684 3.684 0 0 1-1.437-1.511c-.333-.658-.499-1.421-.499-2.29ZM115.166 29.373c.041.503.244.91.609 1.218.374.3.857.45 1.45.45.519 0 .938-.109 1.254-.328.325-.227.488-.54.488-.938 0-.284-.09-.508-.268-.67-.171-.17-.406-.3-.707-.39-.3-.089-.723-.182-1.267-.28a7.652 7.652 0 0 1-1.425-.377 2.325 2.325 0 0 1-.962-.731c-.244-.325-.366-.752-.366-1.28 0-.487.126-.921.378-1.303.26-.381.617-.678 1.072-.889.463-.211.991-.317 1.583-.317.61 0 1.154.114 1.633.341.479.228.856.54 1.133.938.276.398.426.853.45 1.365h-1.376a1.524 1.524 0 0 0-.573-1.06c-.333-.268-.755-.402-1.267-.402-.495 0-.893.11-1.193.329-.293.21-.439.511-.439.901 0 .276.085.495.256.658.179.162.414.284.706.365.293.082.711.17 1.255.268a7.029 7.029 0 0 1 1.425.39c.398.163.723.402.975.719.252.317.377.735.377 1.255 0 .503-.134.954-.402 1.352a2.72 2.72 0 0 1-1.12.938c-.479.219-1.023.328-1.632.328-.674 0-1.267-.121-1.779-.365a2.96 2.96 0 0 1-1.206-1.011 2.77 2.77 0 0 1-.438-1.498l1.376.024Z"></path>
    </g>
    <defs>
        <radialGradient id="paint0_radial_4902_15556" cx="0" cy="0" r="1"
            gradientUnits="userSpaceOnUse"
            gradientTransform="translate(5.30006 2.71899) rotate(49.2576) scale(33.1596 33.2377)">
            <stop offset="0.161538" stop-color="#F546CB"></stop>
            <stop offset="0.450491" stop-color="#966CF1"></stop>
            <stop offset="0.713542" stop-color="#4C8DF5"></stop>
            <stop offset="1" stop-color="#25CEC4"></stop>
        </radialGradient>
    </defs>
</svg>
