<svg width="105" height="20" viewBox="0 0 105 20" fill="none" xmlns="http://www.w3.org/2000/svg">
  <path d="M102.44 15.6494C100.879 17.1754 98.9806 17.9384 96.7433 17.9397C94.5058 17.9397 92.6072 17.1767 91.0464 15.6494C89.4856 14.1233 88.7058 12.2403 88.707 10.0002C88.707 7.76018 89.4883 5.87713 91.0464 4.35111C92.6072 2.82509 94.5058 2.06079 96.7433 2.06079C98.9806 2.06079 100.879 2.82379 102.44 4.35111C104 5.87713 104.779 7.76018 104.779 10.0002C104.779 12.2403 104 14.1233 102.44 15.6494ZM93.5186 13.2727C94.3872 14.1156 95.4621 14.5371 96.7433 14.5383C98.0244 14.5383 99.0916 14.1169 99.9448 13.2727C100.812 12.4298 101.247 11.3394 101.247 10.0015C101.247 8.66497 100.812 7.57458 99.9448 6.73037C99.0916 5.88744 98.0244 5.46598 96.7446 5.46598C95.4633 5.46598 94.3885 5.88744 93.5198 6.73037C92.6652 7.5733 92.2386 8.66367 92.24 10.0015C92.24 11.3394 92.6666 12.4298 93.5186 13.2727Z" fill="rgb(46,54,58)"></path>
  <path d="M89.3027 16.7372L89.5785 16.5632L87.5317 14.1105C86.7264 14.5422 85.806 14.7729 84.8484 14.7729C82.0645 14.7729 80.1775 12.8628 80.1775 10.0002C80.1775 7.13765 82.0631 5.22755 84.8484 5.22755C85.8524 5.22755 86.7418 5.46728 87.5317 5.95833C87.7484 5.70313 89.5412 3.54171 89.5412 3.54171C89.5412 3.54171 89.514 3.51592 89.3014 3.37802C87.9829 2.50544 86.475 2.06079 84.7594 2.06079C79.9583 2.06079 76.5596 5.22755 76.5596 10.0002C76.5596 14.7072 79.8037 17.9397 84.8251 17.9397C86.4866 17.941 87.9789 17.5401 89.3027 16.7372Z" fill="rgb(46,54,58)"></path>
  <path d="M59.8446 15.6494C58.2786 17.1754 56.3736 17.9384 54.1283 17.9397C51.8831 17.9397 49.9782 17.1767 48.4122 15.6494C46.8462 14.1233 46.0639 12.2403 46.0625 10.0002C46.0625 7.76018 46.845 5.87713 48.4122 4.35111C49.9782 2.82509 51.8844 2.06079 54.1283 2.06079C56.3736 2.06079 58.2786 2.82379 59.8446 4.35111C61.4105 5.87713 62.194 7.76018 62.194 10.0002C62.194 12.2403 61.4118 14.1233 59.8446 15.6494ZM50.8932 13.2727C51.7633 14.1156 52.8421 14.5371 54.1283 14.5383C55.4147 14.5383 56.4856 14.1169 57.3415 13.2727C58.2128 12.4298 58.6485 11.3394 58.6485 10.0015C58.6485 8.66497 58.2128 7.57458 57.3415 6.73037C56.4844 5.88744 55.4134 5.46598 54.1283 5.46598C52.8433 5.46598 51.7658 5.88744 50.8932 6.73037C50.0361 7.5733 49.6083 8.66367 49.6083 10.0015C49.6083 11.3394 50.0361 12.4285 50.892 13.2727H50.8932Z" fill="rgb(46,54,58)"></path>
  <path d="M73.7128 9.7164C74.9836 10.5155 75.619 11.6652 75.619 13.1629C75.619 14.4852 75.1396 15.5614 74.1794 16.3915C73.2192 17.2215 72.0295 17.6352 70.6106 17.6339H63.4805V2.36597H70.1683C71.5565 2.36597 72.7165 2.77325 73.6471 3.58782C74.5918 4.38692 75.0648 5.43477 75.0648 6.72879C75.0648 7.95065 74.6137 8.94696 73.7128 9.7164ZM70.1697 5.6384H67.0275V8.34376H70.1697C70.5679 8.34376 70.8928 8.22003 71.1454 7.97256C71.3968 7.70964 71.5217 7.38353 71.5217 6.99172C71.5217 6.59991 71.3953 6.28028 71.1454 6.03151C70.8928 5.76859 70.5679 5.6384 70.1697 5.6384ZM70.6106 14.3615C71.0539 14.3615 71.4083 14.23 71.6739 13.9684C71.9407 13.6926 72.0732 13.3356 72.072 12.8999C72.0708 12.463 71.938 12.115 71.6739 11.8533C71.4071 11.5762 71.0526 11.4383 70.6106 11.4383H67.026V14.3615H70.6106Z" fill="rgb(46,54,58)"></path>
  <path d="M42.0152 17.6334L38.8627 12.6158H36.2462V17.6334H32.7559V2.3667H39.8214C41.2754 2.3667 42.5101 2.87581 43.527 3.89272C44.5439 4.90965 45.053 6.14567 45.053 7.6008C45.053 8.53266 44.7913 9.39748 44.268 10.1953C43.7604 10.9815 43.0837 11.5925 42.2408 12.0281L45.7645 17.6334H42.0152ZM36.2449 5.63785V9.56375H39.8214C40.301 9.56375 40.7082 9.37429 41.042 8.99666C41.3913 8.61901 41.5653 8.15373 41.5653 7.6008C41.5653 7.04787 41.3901 6.5826 41.042 6.20495C40.7082 5.82732 40.301 5.63785 39.8214 5.63785H36.2449Z" fill="rgb(46,54,58)"></path>
  <path d="M11.1599 8.1615C10.8145 7.93078 10.4098 7.80835 9.9948 7.80835C9.4393 7.80835 8.90571 8.03002 8.5139 8.42313C8.12078 8.81625 7.90039 9.34853 7.90039 9.90534C7.90039 10.3203 8.02282 10.7251 8.25352 11.0705C8.48425 11.4159 8.81161 11.684 9.19441 11.8425C9.57719 12.0011 9.99866 12.0423 10.4059 11.9611C10.8119 11.8799 11.1857 11.6801 11.4796 11.3875C11.7721 11.0937 11.9719 10.7212 12.0531 10.3139C12.1343 9.90792 12.0918 9.48517 11.9333 9.10237C11.7734 8.71959 11.5041 8.39221 11.1599 8.1615Z" fill="rgb(46,54,58)"></path>
  <path d="M19.9966 9.86819C19.9953 9.86946 17.9421 9.89526 17.9421 9.89526C16.9497 9.95066 16.0526 10.6686 15.7768 11.6211C14.9042 14.7375 11.8574 16.3808 9.00379 15.9156C6.50468 15.4786 4.37031 13.4654 4.05324 10.6918C3.5235 6.1008 8.17633 2.67241 12.3832 4.48456C13.297 4.86994 14.4209 4.62375 15.0873 3.88651C15.0873 3.88651 16.3993 2.30637 16.4006 2.30637C13.9788 0.291862 10.8456 -0.396392 7.9392 0.21582C7.9366 0.21582 7.93402 0.217111 7.93274 0.217111C7.91212 0.220977 7.8915 0.226134 7.87086 0.23C7.85025 0.233866 7.82963 0.239016 7.80901 0.244173C7.80256 0.245462 7.7974 0.246754 7.79097 0.248043C3.62019 1.18892 0.489507 4.70755 0.053869 8.96856C-0.273503 12.0902 0.904526 15.2196 3.22577 17.3527C4.10093 18.1608 5.10625 18.7949 6.18503 19.2409C6.21726 19.2538 6.25076 19.2679 6.28299 19.2808C6.28427 19.2821 6.28684 19.2821 6.28814 19.2834C7.37078 19.7177 8.51016 19.9536 9.65338 19.9936C9.66111 19.9936 9.67014 19.9936 9.67788 19.9948C9.71911 19.9961 9.76037 19.9974 9.80161 19.9987C9.80289 19.9987 9.80546 19.9987 9.80676 19.9987C9.848 20 9.88926 20 9.93049 20C9.94208 20 9.95369 20 9.964 20C9.9988 20 10.0336 20 10.0671 20C10.0748 20 10.0826 20 10.089 20C10.1315 20 10.1754 19.9987 10.2179 19.9987C10.2231 19.9987 10.2282 19.9987 10.2334 19.9987C10.2759 19.9974 10.3197 19.9961 10.3623 19.9948C10.3635 19.9948 10.3635 19.9948 10.3648 19.9948C12.525 19.9175 14.6594 19.1442 16.4019 17.6929L16.3968 17.6865C18.6446 15.8099 20.0404 12.9756 19.9966 9.86819Z" fill="rgb(46,54,58)"></path>
  </svg>
