<?xml version="1.0" encoding="utf-8"?>
<!-- Generator: Adobe Illustrator 25.4.1, SVG Export Plug-In . SVG Version: 6.00 Build 0)  -->
<svg version="1.1" id="Ebene_1" xmlns="http://www.w3.org/2000/svg" xmlns:xlink="http://www.w3.org/1999/xlink" x="0px" y="0px"
	 viewBox="0 0 320 80" xml:space="preserve">
<style type="text/css">
	.st0{fill:#1D1D1B;}
</style>
<g id="Ebene_2_00000027585714922443346060000014299824079848795292_">
	<g id="Ebene_1-2">
		<g transform="translate(-81 0)">
		<path class="st0" d="M139.7,59.9l-24.7,13.7L90.4,59.9V34.5h-8.8v28c0,1.6,0.9,3.1,2.2,3.8l28.8,16c0.7,0.4,1.4,0.5,2.1,0.6h0.5
			c0.7,0,1.5-0.2,2.1-0.6l28.8-16c1.4-0.8,2.3-2.2,2.3-3.8v-28h-8.8L139.7,59.9z"/>
		<path class="st0" d="M146.2,16.6l-28.8-16c-0.6-0.4-1.4-0.6-2.1-0.6h-0.5c-0.7,0-1.5,0.2-2.1,0.6l-28.8,16
			c-1.4,0.8-2.3,2.2-2.2,3.8v3h8l25.5-14.1l25.4,14.2l8-0.1v-2.9C148.5,18.8,147.6,17.4,146.2,16.6z"/>
		</g>
		<g transform="translate(90 -111)">
		<path class="st0" d="M26.6,152.5v-33.8h7.7v33.7c0,5.7-3.7,8.7-9,8.7H9c-5,0-9-3-9-8.7v-33.7h7.8v33.8c0,1.1,0.4,1.8,1.4,1.8h16.1
			C26.2,154.3,26.6,153.6,26.6,152.5z"/>
		<path class="st0" d="M47.6,118.8h7.3l19.7,29.9v-29.9h7.3v42.4h-7.3l-19.7-30v30h-7.3V118.8z"/>
		<path class="st0" d="M97.3,118.8h7.3v42.4h-7.3V118.8z"/>
		<path class="st0" d="M127.9,125.6h-11.7v-6.9h30.7v6.9h-11.7v35.6h-7.3L127.9,125.6z"/>
		<path class="st0" d="M157.1,118.8h28.4v6.9h-21.1v10.1H181v6.9h-16.6v11.7H186v6.9h-28.9V118.8z"/>
		<path class="st0" d="M229.5,127.5v25c0,5.7-3.7,8.7-9,8.7h-23.2v-42.4h23.2C225.8,118.8,229.5,121.7,229.5,127.5z M220.4,154.3
			c0.9,0,1.3-0.7,1.3-1.8v-25.2c0-1-0.4-1.7-1.3-1.7h-15.8v28.7H220.4z"/>
		<path class="st0" d="M1.9,179.8v10.5H0.2v-14.1H2L7.4,187l5.4-10.8h1.8v14.1h-1.8v-10.5l-5.5,10.7L1.9,179.8z"/>
		<path class="st0" d="M23.5,176.2l6.4,14.1H28l-1.1-2.3H20l-0.9,2.4h-1.8l5.4-14.1L23.5,176.2z M23.1,179.7l-2.5,6.6h5.5
			L23.1,179.7z"/>
		<path class="st0" d="M32.6,176.2h1.8l7.4,11.1v-11.1h1.8v14.1h-1.8l-7.4-11.1v11.1h-1.8V176.2z"/>
		<path class="st0" d="M57.2,188.2v-11.9h1.9v11.6c0.1,1.3-0.9,2.4-2.2,2.5c-0.1,0-0.2,0-0.3,0h-5.9c-1.3,0.1-2.4-0.8-2.6-2.1
			c0-0.1,0-0.2,0-0.3v-11.6h1.9v11.9c0,0.3,0.1,0.5,0.4,0.5h6.4C57.1,188.6,57.2,188.5,57.2,188.2z"/>
		<path class="st0" d="M63.5,176.2h8.9v1.7h-7v4.4h6.1v1.7h-6.1v6.4h-1.8V176.2z"/>
		<path class="st0" d="M79.6,176.2l6.4,14.1h-2l-1-2.3h-6.9l-0.9,2.4h-1.8l5.4-14.1L79.6,176.2z M79.2,179.7l-2.5,6.6h5.5
			L79.2,179.7z"/>
		<path class="st0" d="M88.3,187.9v-9.2c-0.1-1.3,0.9-2.4,2.2-2.5c0.1,0,0.2,0,0.3,0h5.5c1.2-0.1,2.4,0.8,2.5,2c0,0.1,0,0.3,0,0.4
			v1.5h-1.8v-1.8c0-0.3-0.1-0.5-0.4-0.5h-6.4v10.8h6.4c0.3,0,0.4-0.2,0.4-0.5v-1.8h1.8v1.5c0.1,1.2-0.8,2.4-2,2.5
			c-0.1,0-0.3,0-0.4,0h-5.5c-1.3,0.1-2.4-0.8-2.6-2.1C88.3,188.1,88.3,188,88.3,187.9z"/>
		<path class="st0" d="M105.6,177.9h-4.1v-1.7h10v1.7h-4.1v12.4h-1.8L105.6,177.9z"/>
		<path class="st0" d="M123.6,188.2v-11.9h1.9v11.6c0.1,1.3-0.9,2.4-2.2,2.5c-0.1,0-0.2,0-0.3,0h-6c-1.3,0.1-2.4-0.8-2.6-2.1
			c0-0.1,0-0.2,0-0.3v-11.6h1.9v11.9c0,0.3,0.1,0.5,0.4,0.5h6.4C123.5,188.6,123.6,188.5,123.6,188.2z"/>
		<path class="st0" d="M140.6,190.3h-2.2l-4.7-5.7h-2v5.7h-1.8v-14.1h7.3c1.3-0.1,2.4,0.9,2.5,2.2c0,0.1,0,0.2,0,0.3v3.5
			c0.1,1.3-0.9,2.4-2.2,2.5c-0.1,0-0.2,0-0.3,0h-1.2L140.6,190.3z M131.7,183h6.1v-5.1h-6.1V183z"/>
		<path class="st0" d="M143.8,176.2h1.8v14.1h-1.8V176.2z"/>
		<path class="st0" d="M150.5,176.2h1.8l7.4,11.1v-11.1h1.8v14.1h-1.8l-7.4-11.1v11.1h-1.8V176.2z"/>
		<path class="st0" d="M174,190.3h-5.5c-1.3,0.1-2.4-0.9-2.5-2.2c0-0.1,0-0.2,0-0.3v-9.2c-0.1-1.3,0.9-2.4,2.2-2.5
			c0.1,0,0.2,0,0.3,0h5.5c1.2-0.1,2.4,0.8,2.5,2.1c0,0.1,0,0.3,0,0.4v1.4h-1.8v-1.7c0-0.3-0.1-0.5-0.4-0.5h-6.4v10.8h6.4
			c0.3,0,0.4-0.2,0.4-0.5v-3.3h-3v-1.7h4.8v4.7c0.1,1.2-0.8,2.4-2.1,2.5C174.3,190.3,174.1,190.3,174,190.3z"/>
		<path class="st0" d="M187.5,176.2h1.8v6.4h6.8v-6.4h1.8v14.1h-1.8v-6h-6.8v6h-1.8V176.2z"/>
		<path class="st0" d="M211.5,188.2v-11.9h1.9v11.6c0.1,1.3-0.9,2.4-2.2,2.5c-0.1,0-0.2,0-0.3,0h-5.9c-1.3,0.1-2.4-0.8-2.6-2.1
			c0-0.1,0-0.2,0-0.3v-11.6h1.9v11.9c0,0.3,0.1,0.5,0.4,0.5h6.4C211.4,188.6,211.5,188.5,211.5,188.2z"/>
		<path class="st0" d="M227.8,180.3c0,1.6-0.2,2.3-1.2,2.9c1,0.6,1.2,1.9,1.2,3.3c0,2.7-1,3.8-3.2,3.8h-6.9v-14.1h6.7
			C226.8,176.2,227.8,177.2,227.8,180.3z M225.9,182.3v-3.9c0-0.3-0.1-0.5-0.4-0.5h-5.9v4.4L225.9,182.3z M225.5,188.7
			c0.3,0,0.4-0.2,0.4-0.5v-4.3h-6.3v4.8L225.5,188.7z"/>
		</g>
	</g>
</g>
</svg>
