<?xml version="1.0" encoding="UTF-8"?>
<svg version="1.1" viewBox="0 0 1200 1200" xmlns="http://www.w3.org/2000/svg">
 <g fill-rule="evenodd" fill="#fff">
  <path d="m980.18 509.48c-9.6094 0-18.82 3.8164-25.617 10.609-6.793 6.793-10.609 16.008-10.609 25.613v506.89h-796.54v-796.54h506.89c12.656-0.41016 24.184-7.3984 30.398-18.434 6.2148-11.035 6.2148-24.512 0-35.547-6.2148-11.035-17.742-18.023-30.398-18.434h-543.07c-9.6016 0-18.812 3.8125-25.602 10.598-6.793 6.7852-10.613 15.988-10.625 25.59v868.95c0 9.6094 3.8164 18.824 10.609 25.617s16.008 10.609 25.617 10.609h868.95c9.6055 0 18.82-3.8164 25.613-10.609 6.793-6.793 10.609-16.008 10.609-25.617v-543.07c0-9.6055-3.8164-18.82-10.609-25.613-6.793-6.793-16.008-10.609-25.613-10.609z"/>
  <path d="m1088.8 75h-217.23c-12.66 0.40625-24.188 7.3945-30.402 18.43-6.2109 11.035-6.2109 24.516 0 35.551 6.2148 11.035 17.742 18.023 30.402 18.434h129.71l-481.2 481.27c-9.1523 9.1562-12.723 22.5-9.3672 35.004 3.3555 12.504 13.125 22.266 25.633 25.613 12.504 3.3438 25.844-0.23438 34.996-9.3906l481.27-481.16v129.71c-0.3125 9.8047 3.3594 19.32 10.184 26.367s16.215 11.023 26.023 11.023c9.8086 0 19.199-3.9766 26.023-11.023 6.8242-7.0469 10.5-16.562 10.184-26.367v-217.23c0-9.6094-3.8164-18.824-10.609-25.617s-16.008-10.609-25.617-10.609z"/>
 </g>
</svg>
