<svg width="32" height="32" viewBox="0 0 32 32" fill="none" xmlns="http://www.w3.org/2000/svg">
<path d="M23.1386 3H8.86137C5.62423 3 3 5.62423 3 8.86137V23.1386C3 26.3758 5.62423 29 8.86137 29H23.1386C26.3758 29 29 26.3758 29 23.1386V8.86137C29 5.62423 26.3758 3 23.1386 3Z" fill="#06C755"/>
<path d="M24.6653 14.7749C24.6653 10.896 20.7766 7.74023 15.9967 7.74023C11.2168 7.74023 7.32812 10.896 7.32812 14.7749C7.32812 18.2524 10.4156 21.1652 14.5773 21.7152C14.86 21.7762 15.2443 21.9013 15.341 22.1426C15.4288 22.362 15.3987 22.7057 15.3694 22.9267C15.3694 22.9267 15.2679 23.5385 15.2459 23.6685C15.2078 23.8879 15.0713 24.5257 15.9967 24.1365C16.9221 23.7473 20.9887 21.1969 22.8071 19.103C24.0632 17.7259 24.6653 16.3251 24.6653 14.7749Z" fill="white"/>
<path d="M21.7816 17.0154H19.3441C19.301 17.0154 19.2597 16.9983 19.2292 16.9678C19.1988 16.9373 19.1816 16.896 19.1816 16.8529V13.0707C19.1816 13.0276 19.1988 12.9863 19.2292 12.9558C19.2597 12.9253 19.301 12.9082 19.3441 12.9082H21.7816C21.8247 12.9082 21.8661 12.9253 21.8965 12.9558C21.927 12.9863 21.9441 13.0276 21.9441 13.0707V13.6858C21.9441 13.7289 21.927 13.7702 21.8965 13.8007C21.8661 13.8311 21.8247 13.8483 21.7816 13.8483H20.1266V14.4861H21.7816C21.8247 14.4861 21.8661 14.5032 21.8965 14.5337C21.927 14.5641 21.9441 14.6055 21.9441 14.6486V15.2693C21.9441 15.3124 21.927 15.3538 21.8965 15.3842C21.8661 15.4147 21.8247 15.4318 21.7816 15.4318H20.1266V16.0705H21.7816C21.8247 16.0705 21.8661 16.0876 21.8965 16.118C21.927 16.1485 21.9441 16.1899 21.9441 16.233V16.8472C21.9449 16.869 21.9413 16.8908 21.9334 16.9111C21.9256 16.9315 21.9138 16.9501 21.8986 16.9658C21.8834 16.9815 21.8653 16.994 21.8452 17.0025C21.8251 17.011 21.8035 17.0154 21.7816 17.0154Z" fill="#06C755"/>
<path d="M12.7733 17.0143C12.8164 17.0143 12.8578 16.9971 12.8882 16.9667C12.9187 16.9362 12.9358 16.8948 12.9358 16.8518V16.2375C12.9358 16.1944 12.9187 16.1531 12.8882 16.1226C12.8578 16.0921 12.8164 16.075 12.7733 16.075H11.1183V13.0688C11.1183 13.0257 11.1012 12.9843 11.0707 12.9538C11.0402 12.9234 10.9989 12.9062 10.9558 12.9062H10.3383C10.2952 12.9062 10.2539 12.9234 10.2234 12.9538C10.1929 12.9843 10.1758 13.0257 10.1758 13.0688V16.8493C10.1758 16.8924 10.1929 16.9337 10.2234 16.9642C10.2539 16.9947 10.2952 17.0118 10.3383 17.0118H12.7758L12.7733 17.0143Z" fill="#06C755"/>
<path d="M14.239 12.9004H13.6247C13.5332 12.9004 13.459 12.9746 13.459 13.0661V16.8491C13.459 16.9407 13.5332 17.0149 13.6247 17.0149H14.239C14.3305 17.0149 14.4047 16.9407 14.4047 16.8491V13.0661C14.4047 12.9746 14.3305 12.9004 14.239 12.9004Z" fill="#06C755"/>
<path d="M18.424 12.9004H17.8098C17.7667 12.9004 17.7254 12.9175 17.6949 12.948C17.6644 12.9785 17.6473 13.0198 17.6473 13.0629V15.3103L15.9167 12.9727C15.9127 12.9665 15.9081 12.9608 15.9029 12.9556V12.9556L15.8931 12.9459L15.8842 12.9386H15.8793L15.8704 12.9321H15.8655L15.8565 12.9272H15.8509H15.8419H15.8362H15.8265H15.82H15.8102H15.8037H15.7948H15.1684C15.1253 12.9272 15.0839 12.9443 15.0535 12.9748C15.023 13.0053 15.0059 13.0466 15.0059 13.0897V16.8727C15.0059 16.9158 15.023 16.9571 15.0535 16.9876C15.0839 17.0181 15.1253 17.0352 15.1684 17.0352H15.7834C15.8265 17.0352 15.8679 17.0181 15.8983 16.9876C15.9288 16.9571 15.9459 16.9158 15.9459 16.8727V14.6034L17.679 16.9434C17.6903 16.96 17.7047 16.9743 17.7212 16.9856L17.731 16.9921H17.7359L17.744 16.9962H17.7521H17.7578H17.7692C17.7835 16.9997 17.7983 17.0017 17.813 17.0019H18.424C18.4671 17.0019 18.5085 16.9848 18.539 16.9543C18.5694 16.9238 18.5865 16.8825 18.5865 16.8394V13.0661C18.587 13.0445 18.5831 13.023 18.5751 13.003C18.5672 12.9829 18.5552 12.9646 18.5401 12.9491C18.525 12.9337 18.5069 12.9214 18.487 12.9131C18.4671 12.9047 18.4457 12.9004 18.424 12.9004Z" fill="#06C755"/>
</svg>
