<svg viewBox="52 40 572 68" width="572" height="68" xmlns="http://www.w3.org/2000/svg">
    <title>Freigeist</title>
    <g style="fill:#000; stroke:#000; stroke-miterlimit:10; stroke-width:0.8px;">
        <path d="M198.85,94.45V53.78h24.68v3.46H203.1V71.56h18.12V75H203.1V94.45Z"/>
        <path d="M278.94,66a9.94,9.94,0,0,1-2.56,7.22A14.7,14.7,0,0,1,269.63,77q1,1.17,2.59,3.17t3.28,4.37q1.69,2.38,3.31,5a49.79,49.79,0,0,1,2.75,4.93H277q-1.31-2.35-2.84-4.69T271,85.21q-1.6-2.2-3.09-4.08l-2.62-3.29q-2,.18-4,.18h-7V94.45h-4.25V54.54a32.22,32.22,0,0,1,5.28-.85q3-.26,5.59-.26,8.93,0,13.46,3.17T278.94,66Zm-17.49-9.1q-2.37,0-4.16.15l-3,.26V74.61h5.87a55.49,55.49,0,0,0,5.56-.26,14,14,0,0,0,4.56-1.17,7.32,7.32,0,0,0,3.06-2.61,8.32,8.32,0,0,0,1.12-4.64,8.14,8.14,0,0,0-1.12-4.46,8.3,8.3,0,0,0-2.94-2.79,12.42,12.42,0,0,0-4.15-1.41A30.27,30.27,0,0,0,261.45,56.89Z"/>
        <path d="M307.43,94.45V53.78h25v3.46H311.68V71.39h18.49v3.4H311.68V91H334v3.46Z"/>
        <path d="M360.84,53.78h4.25V94.45h-4.25Z"/>
        <path d="M422.07,79.57a4,4,0,0,1,4.25-4.37V93.34a34.43,34.43,0,0,1-4.66,1.2,42,42,0,0,1-8.53.74,21.53,21.53,0,0,1-7.87-1.41A17.86,17.86,0,0,1,399,89.79a18.61,18.61,0,0,1-4.16-6.63,25.52,25.52,0,0,1-1.5-9.07A23.75,23.75,0,0,1,395,65a18.63,18.63,0,0,1,10.87-10.71,21.86,21.86,0,0,1,7.87-1.41,27.27,27.27,0,0,1,7.93,1,21.25,21.25,0,0,1,4.56,1.85l-1.44,3.4A15,15,0,0,0,420,57.21a27.33,27.33,0,0,0-6.5-.73,16.81,16.81,0,0,0-6.12,1.11,13.62,13.62,0,0,0-5,3.35A15.85,15.85,0,0,0,399,66.46a21.88,21.88,0,0,0-1.22,7.63,24.88,24.88,0,0,0,1,7.31,15,15,0,0,0,3,5.58,13.3,13.3,0,0,0,5,3.55,18.15,18.15,0,0,0,6.93,1.23,37,37,0,0,0,5.34-.32,15.83,15.83,0,0,0,2.9-.62Z"/>
        <path d="M454.93,94.45V53.78h25v3.46H459.18V71.39h18.49v3.4H459.18V91h22.37v3.46Z"/>
        <path d="M508.34,53.78h4.25V94.45h-4.25Z"/>
        <path d="M551.88,91.87q5.06,0,7.87-1.74a6.1,6.1,0,0,0,2.81-5.62,7.13,7.13,0,0,0-.9-3.74,8.18,8.18,0,0,0-2.41-2.53,15.93,15.93,0,0,0-3.43-1.76l-4.06-1.55a49.27,49.27,0,0,1-4.81-2,16.46,16.46,0,0,1-3.62-2.37,9,9,0,0,1-2.28-3,9.48,9.48,0,0,1-.78-4A9.2,9.2,0,0,1,544,55.6q3.68-2.7,10.25-2.7a25.12,25.12,0,0,1,3.44.23,28.22,28.22,0,0,1,3.15.62,25.28,25.28,0,0,1,2.69.85,11,11,0,0,1,2,1L564,58.95a15.54,15.54,0,0,0-4.4-1.88,21.25,21.25,0,0,0-5.59-.71,17.4,17.4,0,0,0-3.78.38,8.48,8.48,0,0,0-3,1.23,6.23,6.23,0,0,0-2,2.14,6.3,6.3,0,0,0-.72,3.11,6.23,6.23,0,0,0,.75,3.17,7,7,0,0,0,2.09,2.23,17,17,0,0,0,3.16,1.7q1.81.77,3.94,1.59,2.56,1,4.84,2a17.56,17.56,0,0,1,4,2.35A10.08,10.08,0,0,1,566,79.55a10.28,10.28,0,0,1,1,4.75q0,5.52-4.09,8.28t-11.09,2.76a32.52,32.52,0,0,1-4.56-.29,30.78,30.78,0,0,1-3.69-.73,22.66,22.66,0,0,1-2.75-.91,16.9,16.9,0,0,1-1.75-.82l1.37-3.46c.42.23,1,.51,1.69.82a22.57,22.57,0,0,0,2.5.91,24.49,24.49,0,0,0,3.25.73A25.11,25.11,0,0,0,551.88,91.87Z"/>
        <path d="M621.11,53.78v3.46H607.24V94.45H603V57.24H589.12V53.78Z"/>
    </g>
    <g style="fill:#000;">
        <path d="M139.08,67.35a1.37,1.37,0,0,0-1.52.45l-9.71,12.45a1.37,1.37,0,0,0-.29.84V95.24H55.88a1.37,1.37,0,0,0-1.37,1.37v8.64a1.37,1.37,0,0,0,1.37,1.37h82.76a1.37,1.37,0,0,0,1.37-1.37V68.65A1.37,1.37,0,0,0,139.08,67.35Z"/>
        <path d="M55.88,53.14h67.4a1.37,1.37,0,0,0,1.08-.53L131,44a1.37,1.37,0,0,0-1.08-2.2H55.88a1.37,1.37,0,0,0-1.37,1.37v8.64A1.37,1.37,0,0,0,55.88,53.14Z"/>
        <path d="M55.88,79H97.3a1.37,1.37,0,0,0,1.08-.52l6.77-8.63a1.37,1.37,0,0,0-1.08-2.21H55.88A1.37,1.37,0,0,0,54.51,69v8.63A1.37,1.37,0,0,0,55.88,79Z"/>
    </g>
</svg>
