<svg id="Ebene_1" data-name="Ebene 1" xmlns="http://www.w3.org/2000/svg" viewBox="150 320 900 560">
  <g fill="#fff">
    <path d="M462.32654,590.14405H256.91146c-7.81936,0-11.17046-2.69753-11.17046-8.99176V416.53375l-74.84194-50.54417v496.503L245.741,815.32343v-164.934c0-6.29423,3.3511-8.992,11.17046-8.992H462.32654Z"/>
    <polygon points="902.446 337.472 875.352 388.782 627.167 388.782 627.167 388.795 607.319 388.795 607.319 816.113 527.4 816.113 527.4 388.782 353.778 388.782 353.778 388.73 273.704 388.73 197.806 337.472 902.446 337.472"/>
    <path d="M1029.10094,337.52336V493.70062h-.03857v368.75l-.03858-.02509v.10224L947.88431,816.229V737.774h.03858V504.74825c-5.30568,13.05241-12.55121,29.07247-19.34707,41.10931L799.35122,777.84267a10.13282,10.13282,0,0,1-9.22389,4.94609H762.41707a10.13274,10.13274,0,0,1-9.22389-4.94609L664.53836,617.40055V465.00075l96.851,183.23178c3.08316,4.94609,11.27933,26.41281,13.3477,33.01617h3.08316c2.05551-6.60336,11.2794-27.23517,14.34969-33.01617L929.29523,388.80745h.15416l27.23485-51.28409Z"/>
  </g>
</svg>
