<svg width="1914" height="180" viewBox="0 0 1914 180" fill="none" xmlns="http://www.w3.org/2000/svg">
<g transform="translate(-208 -408)">
<path d="M607.989 495.178C607.989 486.972 608.014 478.763 607.985 470.557C607.915 451.117 615.081 434.784 629.337 421.675C638.316 413.42 648.959 408.537 661.215 407.354C663.835 407.102 666.442 407.044 669.057 407.044C683.056 407.035 697.058 407.193 711.057 407.006C734.25 406.7 751.067 417.442 763.021 436.647C768.326 445.175 771.186 454.597 771.649 464.623C772.481 482.47 771.839 500.334 771.98 518.189C772.021 523.568 771.595 528.923 770.486 534.211C769.191 540.401 767.106 546.298 763.899 551.752C763.021 553.246 763.141 554.119 764.383 555.265C773.503 563.677 782.573 572.148 791.656 580.602C792.091 581.007 792.893 581.297 792.678 582C792.455 582.737 791.631 582.513 791.044 582.513C781.597 582.526 772.146 582.505 762.699 582.538C761.404 582.542 760.501 582 759.616 581.148C756.397 578.032 753.103 574.991 749.904 571.854C748.721 570.691 747.814 570.542 746.399 571.639C736.336 579.431 724.965 583.184 712.174 583.018C696.384 582.811 680.589 583.031 664.799 582.915C650.92 582.811 638.982 577.635 628.902 568.254C614.688 555.025 607.824 538.593 607.989 519.178C608.059 511.179 608.001 503.176 608.001 495.178H607.989ZM633.334 494.764C633.334 498.352 633.239 501.939 633.355 505.519C633.582 512.611 632.895 519.72 633.897 526.792C635.904 540.981 648.864 556.813 668.188 556.378C682.315 556.059 696.458 556.283 710.594 556.328C718.216 556.353 725.279 554.189 731.482 550.035C741.781 543.132 746.345 532.73 746.627 520.721C747.028 503.561 746.73 486.385 746.73 469.212C746.73 462.285 744.988 455.838 741.256 449.987C734.825 439.895 725.859 433.841 713.668 433.684C697.812 433.481 681.951 433.576 666.09 433.667C660.847 433.696 655.815 434.946 651.309 437.747C639.471 445.104 633.437 455.776 633.35 469.734C633.297 478.076 633.342 486.422 633.338 494.764H633.334Z" fill="#fff"/>
<path d="M269.089 506.901C269.089 482.694 269.089 458.491 269.089 434.284C269.089 431.445 269.081 431.433 266.209 431.433C248.623 431.433 231.037 431.433 213.455 431.433C210.016 431.433 210.004 431.416 210.004 427.982C210.004 422.602 209.995 417.223 210.004 411.844C210.008 409.162 210.128 409.038 212.805 409.038C237.149 409.034 261.492 409.038 285.836 409.038C306.939 409.038 328.043 409.038 349.142 409.038C351.391 409.038 352.515 410.187 352.515 412.485C352.515 417.794 352.519 423.107 352.515 428.416C352.515 431.296 352.391 431.429 349.461 431.429C332.152 431.437 314.843 431.429 297.534 431.433C295.197 431.433 294.028 432.613 294.025 434.975C294.025 482.698 294.025 530.417 294.025 578.14C294.025 581.08 292.559 582.552 289.626 582.555C283.696 582.555 277.763 582.563 271.833 582.551C269.152 582.546 269.089 582.476 269.089 579.729C269.089 555.455 269.089 531.178 269.089 506.905V506.901Z" fill="#fff"/>
<path d="M481.07 582.551C461.282 582.551 441.49 582.551 421.702 582.551C418.529 582.551 418.524 582.542 418.524 579.311C418.524 554.144 418.545 528.977 418.508 503.81C418.5 497.363 421.698 492.691 426.862 489.505C432.428 486.07 438.515 484.307 445.297 484.357C472.256 484.568 499.214 484.444 526.177 484.444C528.652 484.444 529.889 485.712 529.889 488.247C529.889 493.072 529.893 497.901 529.889 502.725C529.885 506.288 529.835 506.338 526.347 506.338C499.939 506.338 473.53 506.338 447.122 506.338C444.926 506.338 443.827 507.447 443.824 509.665C443.824 525.521 443.824 541.382 443.824 557.239C443.824 559.396 444.94 560.475 447.171 560.475C478.198 560.475 509.228 560.475 540.255 560.475C542.544 560.475 543.69 561.596 543.693 563.839C543.693 568.941 543.693 574.043 543.693 579.145C543.693 581.382 542.539 582.502 540.23 582.505C520.508 582.505 500.791 582.505 481.07 582.505V582.542V582.551Z" fill="#fff"/>
<path d="M478.984 409.034C498.006 409.034 517.029 409.034 536.055 409.034C539.134 409.034 539.138 409.042 539.142 412.146C539.142 417.662 539.15 423.173 539.142 428.689C539.138 431.375 539.051 431.453 536.1 431.453C505.567 431.453 475.033 431.453 444.503 431.453C438.9 431.453 433.363 431.896 427.955 433.51C424.711 434.474 422.245 436.469 420.048 438.918C419.745 439.253 419.485 439.845 418.918 439.622C418.359 439.402 418.545 438.786 418.545 438.335C418.533 429.235 418.558 420.14 418.521 411.041C418.512 409.295 419.452 409.013 420.892 409.017C426.888 409.046 432.883 409.03 438.879 409.03C452.249 409.03 465.623 409.03 478.993 409.03L478.984 409.034Z" fill="#fff"/>
<path d="M1009.58 553.755C1010.38 553.755 1011.07 554.036 1011.63 554.599L1016.46 559.792C1012.92 563.574 1009.06 566.996 1004.87 570.054C1000.76 573.029 996.217 575.607 991.226 577.78C986.319 579.873 980.885 581.483 974.931 582.609C969.055 583.817 962.579 584.417 955.495 584.417C943.665 584.417 932.798 582.364 922.9 578.26C913.081 574.076 904.631 568.2 897.551 560.636C890.467 552.989 884.955 543.774 881.012 532.99C877.147 522.207 875.219 510.215 875.219 497.015C875.219 483.815 877.23 472.229 881.256 461.524C885.278 450.819 890.914 441.645 898.155 434.002C905.397 426.277 914.091 420.322 924.229 416.135C934.371 411.868 945.556 409.737 957.787 409.737C970.019 409.737 979.797 411.55 988.814 415.171C997.826 418.791 1006.04 423.902 1013.44 430.502L1009.7 435.935C1009.05 436.899 1008.05 437.383 1006.68 437.383C1005.72 437.383 1004.14 436.498 1001.97 434.727C999.8 432.955 996.783 431.023 992.919 428.933C989.054 426.761 984.229 424.787 978.432 423.02C972.717 421.249 965.836 420.364 957.787 420.364C947.488 420.364 938.029 422.135 929.418 425.677C920.885 429.219 913.524 434.288 907.325 440.888C901.209 447.488 896.422 455.536 892.958 465.033C889.499 474.529 887.769 485.193 887.769 497.023C887.769 508.854 889.499 519.881 892.958 529.374C896.5 538.87 901.329 546.919 907.445 553.519C913.561 560.036 920.765 565.068 929.053 568.61C937.425 572.073 946.437 573.803 956.095 573.803C962.211 573.803 967.644 573.402 972.39 572.595C977.219 571.792 981.647 570.584 985.669 568.974C989.691 567.364 993.436 565.395 996.895 563.061C1000.35 560.727 1003.78 557.992 1007.16 554.851C1007.56 554.528 1007.96 554.288 1008.37 554.127C1008.77 553.887 1009.17 553.763 1009.57 553.763L1009.58 553.755ZM1197.12 520.436L1162.35 434.122C1161.15 431.304 1159.98 427.924 1158.85 423.98C1158.37 425.913 1157.84 427.762 1157.28 429.533C1156.72 431.222 1156.12 432.794 1155.47 434.242L1120.7 520.436H1197.12ZM1234.9 582.484H1225.36C1224.24 582.484 1223.31 582.203 1222.59 581.64C1221.86 580.999 1221.3 580.192 1220.9 579.228L1200.86 529.614H1116.96L1096.92 579.228C1096.59 580.113 1096.03 580.879 1095.23 581.52C1094.43 582.166 1093.46 582.484 1092.33 582.484H1082.92L1152.81 411.67H1165.01L1234.9 582.484ZM1362.93 503.781C1370.42 503.781 1377.14 502.734 1383.09 500.64C1389.04 498.546 1394.08 495.65 1398.18 491.95C1402.36 488.247 1405.54 483.902 1407.72 478.912C1409.97 473.843 1411.1 468.327 1411.1 462.372C1411.1 449.255 1407.07 439.154 1399.03 432.07C1390.98 424.99 1378.95 421.448 1362.93 421.448H1331.18V503.776H1362.93V503.781ZM1362.93 411.67C1382.97 411.67 1398.06 416.056 1408.2 424.829C1418.42 433.601 1423.53 446.114 1423.53 462.372C1423.53 469.858 1422.12 476.739 1419.31 483.016C1416.49 489.294 1412.47 494.727 1407.23 499.312C1402 503.818 1395.64 507.36 1388.16 509.934C1380.68 512.429 1372.27 513.674 1362.93 513.674H1331.19V582.484H1318.75V411.67H1362.93H1362.93ZM1526.29 582.484H1513.86V411.67H1526.29V582.484ZM1743.4 422.172H1683.41V582.484H1670.97V422.172H1610.61V411.67H1743.4V422.172ZM1903.05 520.436L1868.29 434.122C1867.08 431.304 1865.91 427.924 1864.78 423.98C1864.3 425.913 1863.78 427.762 1863.22 429.533C1862.65 431.222 1862.05 432.794 1861.41 434.242L1826.64 520.436H1903.06H1903.05ZM1940.84 582.484H1931.3C1930.17 582.484 1929.25 582.203 1928.52 581.64C1927.8 580.999 1927.23 580.192 1926.83 579.228L1906.79 529.614H1822.9L1802.86 579.228C1802.53 580.113 1801.97 580.879 1801.16 581.52C1800.36 582.166 1799.39 582.484 1798.27 582.484H1788.85L1858.75 411.67H1870.94L1940.83 582.484H1940.84ZM2118 571.982V582.484H2024.68V411.67H2037.12V571.982H2118Z" fill="#fff"/>
</g>
</svg>
