<svg id="Ebene_1" data-name="Ebene 1" xmlns="http://www.w3.org/2000/svg" viewBox="0 0 600 600">
  <defs>
    <style>
      .cls-1 {
        fill: #6da7fd;
      }
    </style>
  </defs>
  <g>
    <path class="cls-1" d="M258.75893,116.24221c1.84692.45527,3.72691.80675,5.53523,1.38315,9.53444,3.03911,16.30245,9.50223,21.55431,17.73461a66.93332,66.93332,0,0,1,9.90244,29.471c1.56067,14.86238-.56471,29.13153-7.43411,42.536a49.29026,49.29026,0,0,1-11.89189,15.32509c-12.96929,11.02923-29.5425,10.90684-42.308-.37438-8.45139-7.46874-13.63044-16.98167-16.48719-27.72793-4.98326-18.74562-3.85328-37.07467,4.86634-54.59741,4.53981-9.12309,10.99157-16.62341,20.48569-20.91287,2.92073-1.3196,6.17-1.912,9.26882-2.83734Z"/>
    <path class="cls-1" d="M381.86826,487.2734a160.24891,160.24891,0,0,1-45.48255-6.62374,130.2384,130.2384,0,0,0-50.565-4.47026c-9.80339,1.05759-19.4796,3.25037-29.24157,4.746a248.29251,248.29251,0,0,1-50.175,2.30514c-11.95621-.59851-22.59947-4.2875-31.88655-11.79356-8.02721-6.48784-13.60478-14.80016-17.444-24.29693-4.20244-10.39531-6.70074-21.12746-5.99747-32.44877.7612-12.2541,5.13658-23.18757,12.06016-33.18972,7.69369-11.11466,18.00647-19.48517,28.44525-27.869,17.91232-14.38615,35.43281-29.27147,48.84333-48.25313,3.60446-5.10186,6.65026-10.67014,10.719-15.35907,13.15583-15.161,29.63242-23.59984,50.08925-22.67553,13.36309.60378,24.67181,6.34541,34.5868,15.06614a84.741,84.741,0,0,1,14.23056,16.21575c11.14223,16.46555,24.47875,31.03489,38.65451,44.878,11.69418,11.41986,24.07557,22.05281,36.76124,32.36088,9.947,8.08272,16.089,18.7877,18.87371,31.19121,4.614,20.55151.36448,39.73741-10.753,57.27745-7.03051,11.09206-18.06392,16.96658-30.55544,20.22347A93.96051,93.96051,0,0,1,381.86826,487.2734ZM262.7241,360.92418c-1.0059,0-1.69363-.00016-2.38134.00005q-12.24744.00333-24.49485.01381a14.90414,14.90414,0,0,0-2.47386.16655,44.26273,44.26273,0,0,0-25.39963,13.46179c-5.92613,6.28219-10.2384,13.57045-11.832,22.12829a56.1289,56.1289,0,0,0-.10035,19.24662c1.30266,8.08365,3.58149,15.77872,9.3005,22.03979a47.62309,47.62309,0,0,0,13.53517,10.49246,43.58722,43.58722,0,0,0,21.07165,5.22226c14.66519-.29726,29.3407-.086,44.01193-.08558.80837,0,1.61675,0,2.50967,0V326.97784H262.7241Zm122.4634,92.383V363.9948H359.08407v2.3704q.00014,31.39092.03848,62.78173c.00479,1.70646-.463,2.13746-2.14736,2.11336-7.01624-.10044-14.03514-.08863-21.05222-.02544a13.29381,13.29381,0,0,1-8.02675-2.64229,8.015,8.015,0,0,1-3.56338-6.99427c.064-18.5662.02386-37.13278.01236-55.69921-.00044-.73741-.06251-1.47481-.08842-2.04763h-24.5831v2.54684c0,20.67209.0275,41.34427-.02961,62.0162a18.94152,18.94152,0,0,0,2.029,8.64935,26.81914,26.81914,0,0,0,10.93877,11.46389c4.15069,2.38293,8.4392,4.719,13.36777,4.7428,19.01132.09156,38.02331.0368,57.03508.03662C383.705,453.30712,384.39526,453.30715,385.1875,453.30715Z"/>
    <path class="cls-1" d="M471.73659,282.91327c.10628,8.89858-.50954,17.709-3.04778,26.30493-5.03156,17.03957-16.335,26.22627-34.06207,27.46785a65.44152,65.44152,0,0,1-21.82219-1.93546c-13.09-3.54616-21.33136-11.94151-24.916-24.98437-2.15283-7.83317-2.48913-15.85855-2.50773-23.9079-.02427-10.50115.67594-20.92508,4.08155-30.97252,3.06422-9.04035,8.05325-16.62789,16.64333-21.36321,6.55817-3.61521,13.69024-4.693,21.06806-4.55519,24.87.46459,38.11886,17.58956,42.80034,35.945,1.4788,5.79809,1.58924,11.94525,2.32588,17.93266Z"/>
    <path class="cls-1" d="M214.77678,258.83754c-.06429,9.96491-1.19748,19.74325-5.22185,28.99-6.22122,14.29444-17.37466,22.24184-32.54539,24.43035-17.96054,2.591-32.05471-4.85568-41.16147-21.38091-5.84986-10.61522-8.93159-22.026-7.97636-34.16634,1.026-13.03922,4.41141-25.49494,11.36907-36.74293,12.04537-19.47292,33.94547-23.80875,52.44483-10.2918,10.14349,7.41155,17.41384,17.17252,20.7671,29.277,1.76686,6.37792,1.95766,13.19253,2.86008,19.81Z"/>
    <path class="cls-1" d="M317.71836,186.96982c-.39929-19.344,8.46319-34.57086,21.2495-48.028a49.71335,49.71335,0,0,1,14.57681-10.68931,23.92643,23.92643,0,0,1,20.71413-.50678c12.32486,5.30493,20.64671,14.69063,26.48307,26.45571,4.49169,9.0545,6.56748,18.63832,4.91447,28.74538a74.62472,74.62472,0,0,1-13.58907,32.29682,51.09755,51.09755,0,0,1-16.41895,14.95283c-16.28822,9.05771-38.23645,4.7555-48.86121-9.6194-5.32122-7.19938-7.58423-15.50982-8.48874-24.25815C317.97753,193.21572,317.90451,190.08692,317.71836,186.96982Z"/>
    <path class="cls-1" d="M262.162,381.34248V432.829c-.70958.03555-1.38406.09764-2.05862.09857q-8.22262.01153-16.44526.00346c-9.52-.00243-16.98607-5.07356-20.767-13.8026-4.56856-10.54761-2.22807-28.52553,10.84859-35.36978a18.28435,18.28435,0,0,1,9.23746-2.56c5.73125.177,11.47187.0473,17.20855.05468C260.80739,381.25417,261.429,381.308,262.162,381.34248Z"/>
  </g>
</svg>
