<svg id="Ebene_1" data-name="Ebene 1" xmlns="http://www.w3.org/2000/svg" viewBox="0 0 600 600">
  <defs>
    <style>
      .cls-1 {
        fill: #6da7fd;
      }

      .cls-2 {
        fill: #ffbd6f;
      }
    </style>
  </defs>
  <g>
    <path class="cls-1" d="M107.12386,315.90361a168.97224,168.97224,0,0,1-.632-22.69255,194.34439,194.34439,0,0,1,9.012-52.27066A193.60645,193.60645,0,0,1,255.438,111.48721c4.14707-.99308,8.37152-1.68993,12.58463-2.37281,3.7518-.6081,7.54737-.94205,11.30643-1.5106,8.37912-1.26732,16.8119-1.24311,25.244-1.07241,4.02944.08157,8.058.40225,12.07714.73429,2.94976.24369,5.89035.63255,8.82305,1.04255A191.535,191.535,0,0,1,356.187,115.1308,195.334,195.334,0,0,1,484.80385,243.15046a170.46974,170.46974,0,0,1,5.69156,23.09814c.96858,5.71634,1.58906,11.49162,2.36474,17.24061q.02019.37214.04035.74428a184.18191,184.18191,0,0,1,.67741,21.01923,192.14084,192.14084,0,0,1-1.91114,22.80241,190.07345,190.07345,0,0,1-21.7092,64.68754A194.23488,194.23488,0,0,1,343.567,488.63054a184.32323,184.32323,0,0,1-20.44573,3.56,189.15827,189.15827,0,0,1-24.679,1.34322,175.42452,175.42452,0,0,1-20.05808-1.31515c-4.02844-.526-8.1014-.83258-12.07489-1.63236a228.71537,228.71537,0,0,1-22.46185-5.56267c-33.15432-10.24884-61.72427-27.88482-85.37878-53.2918a192.60738,192.60738,0,0,1-47.10587-88.53852c-1.02264-4.33778-1.97867-8.704-2.67064-13.10337-.70011-4.45122-1.0339-8.96-1.52814-13.44357ZM368.881,304.1112l.1172-.35077c.362-.07311.72659-.13522,1.0851-.22241.3612-.08788.716-.202,1.07427-.30224,12.14855-3.39921,20.752-10.8073,25.4681-22.57451a59.42341,59.42341,0,0,0,3.56453-15.53818c1.26809-11.12224-1.47-21.02582-8.6887-29.63934-4.85846-5.79723-10.89188-10.11956-17.4234-13.798a137.911,137.911,0,0,0-23.54531-10.12269c-.79756-.27071-1.58779-.563-2.45774-.87237,3.53528-13.557,7.01538-26.90234,10.52727-40.3697l-24.69637-7.0361c-3.24647,13.23635-6.44431,26.27459-9.69014,39.50842l-20.14638-4.30918c3.43749-13.32254,7.08965-26.36,10.489-39.59888L290.77681,152.742c-3.53894,13.51855-7.03109,26.85834-10.57274,40.38733-2.04986-.34893-3.99-.5881-5.88544-1.02239-3.13366-.718-6.239-1.55972-9.35537-2.353q-16.66837-4.24326-33.33724-8.48456c-.509-.12932-1.03462-.19292-1.6238-.3001-2.36233,8.85475-4.67309,17.51616-7.004,26.25325.46784.13461.75459.227,1.04629.29956,5.95582,1.48049,11.88851,3.06406,17.87432,4.41171,8.13855,1.83232,11.18186,9.83831,9.6215,15.91591-3.43712,13.38752-6.59867,26.84569-9.88224,40.27266q-8.34888,34.13949-16.71515,68.27464c-.89345,3.64268-3.30828,5.67332-6.94334,6.39155a10.87137,10.87137,0,0,1-4.7838-.30938c-5.41673-1.33487-10.82855-2.68955-16.24481-4.02647a13.19726,13.19726,0,0,0-1.32009-.18476c-4.09684,9.35759-8.16037,18.639-12.27535,28.038,8.38656,2.33389,16.48392,4.65676,24.6207,6.83214,8.12761,2.173,16.29472,4.19826,24.58707,6.32484-.175.79423-.30062,1.45413-.46638,2.10381q-4.8042,18.82893-9.61049,37.65733c-.12967.50887-.16661,1.04137-.25515,1.61735,8.2616,2.34924,16.34078,4.64661,24.54729,6.98017,3.611-13.5954,7.01954-27.01236,10.61565-40.42109,3.56976.669,6.91259,1.18182,10.19776,1.94321a56.54726,56.54726,0,0,1,9.77441,2.67761c-.3336,1.40392-.601,2.60436-.90559,3.7953q-.96747,3.78343-1.96762,7.55849-3.698,13.92081-7.39239,27.84257a3.22848,3.22848,0,0,0,.04063,1.06631c8.22762,2.62954,16.293,5.20722,24.53478,7.84128,3.84061-13.83948,7.62721-27.48431,11.43489-41.205.6079.09431,1.02224.15293,1.43451.22366,1.13871.19537,2.27131.4361,3.41587.58574,2.25717.29509,4.52359.51951,6.78073.81465,1.448.1893,2.87885.56368,4.33043.66131,3.71333.24977,7.43385.3925,11.15162.57552a85.61661,85.61661,0,0,0,24.5048-2.05c13.5397-3.27818,23.94281-10.78392,30.92634-22.91882a82.571,82.571,0,0,0,7.40947-18.22539,58.01272,58.01272,0,0,0,2.55674-17.78733,36.13368,36.13368,0,0,0-10.51222-25.12309,58.58412,58.58412,0,0,0-14.53781-10.59555C370.01457,304.77028,369.45086,304.435,368.881,304.1112Z"/>
    <path class="cls-2" d="M107.12386,315.90361l.04014.7427Z"/>
    <path class="cls-1" d="M266.18289,360.87577c4.393-18.12562,8.7559-36.12736,13.14784-54.24872.46371.077.81453.11241,1.15387.1951,3.70974.90394,7.38463,1.9935,11.13288,2.688a148.51415,148.51415,0,0,1,23.94366,6.73319,64.50281,64.50281,0,0,1,14.64439,7.23771,47.278,47.278,0,0,1,6.35744,5.13738c6.81615,6.71423,8.5271,14.745,5.60753,23.77082-2.568,7.93907-8.25512,12.62646-16.08534,14.8982a50.58114,50.58114,0,0,1-16.5314,1.73081c-2.974-.13677-5.9525-.29558-8.91127-.61055-2.60769-.27759-5.20239-.724-7.7827-1.20386-8.67571-1.61357-17.17426-4-25.76837-5.97093A8.016,8.016,0,0,1,266.18289,360.87577Z"/>
    <path class="cls-1" d="M298.72833,231.80572c7.21929,1.995,14.16083,3.83587,21.05436,5.84163a74.58728,74.58728,0,0,1,17.09385,7.18287,35.64282,35.64282,0,0,1,9.56856,7.89068c7.16274,8.63583,5.74483,20.84777-.49105,27.92729-3.375,3.83155-7.79173,5.84215-12.67954,6.91821-5.94311,1.30838-11.9291,1.11173-17.94736.557a116.98645,116.98645,0,0,1-12.97375-2.09575c-5.31311-1.1004-10.52677-2.68058-15.95872-4.09932C290.50253,265.23441,294.57932,248.66687,298.72833,231.80572Z"/>
  </g>
</svg>
