<?xml version="1.0" encoding="utf-8"?>
<svg xmlns="http://www.w3.org/2000/svg" viewBox="0 0 600 600">
  <defs>
    <style>
      .cls-1 {
        fill: #6da7fd;
      }
    </style>
  </defs>
  <g transform="scale(4.8) translate(177 230)" transform-origin="300 300">
    <path d="M156.713,94.572a10.169,10.169,0,0,0-3.76-1.94,9.813,9.813,0,0,0-4.35-.284v.023c-.676.276-1.361.537-2.066.764a25.142,25.142,0,0,1-7.773,1.179,26.011,26.011,0,0,1-10.026-1.939,26.892,26.892,0,0,1-8.24-5.265,24.831,24.831,0,0,1-5.6-7.806,23.158,23.158,0,0,1,0-19.1,24.952,24.952,0,0,1,5.6-7.78,26.943,26.943,0,0,1,8.24-5.265,26.036,26.036,0,0,1,10.026-1.938,25.515,25.515,0,0,1,7.718,1.152c.809.256,1.594.556,2.369.876l.01-.023v.034a9.813,9.813,0,0,0,4.35-.284,10.169,10.169,0,0,0,3.76-1.94,11.359,11.359,0,0,0,2.536-3.005l2.328-4.011a47.934,47.934,0,0,0-7.865-3.542,41.631,41.631,0,0,0-6.607-2.093,39.141,39.141,0,0,0-8.6-.943,41.892,41.892,0,0,0-20.353,5.213,39.875,39.875,0,0,0-14.476,13.753,36.7,36.7,0,0,0-4.065,9.142,36.186,36.186,0,0,0-1.428,10.19A35.729,35.729,0,0,0,101.6,84.674a38.268,38.268,0,0,0,8.652,12.155,41.391,41.391,0,0,0,12.828,8.2,40.852,40.852,0,0,0,15.684,3.013,39.183,39.183,0,0,0,8.6-.943,41.365,41.365,0,0,0,6.024-1.861c.07-.023.149-.043.218-.067a47.988,47.988,0,0,0,7.973-3.582l-2.328-4.011A11.362,11.362,0,0,0,156.713,94.572Z" transform="translate(-15.087)" class="cls-1"/>
    <circle cx="4.082" cy="4.082" r="4.082" transform="translate(157.705 64.274)" class="cls-1"/>
    <circle cx="3.248" cy="3.248" r="3.248" transform="translate(155.048 52.053)" class="cls-1"/>
    <circle cx="3.248" cy="3.248" r="3.248" transform="translate(155.048 77.998)" class="cls-1"/>
    <path d="M194.261,77.533a3.249,3.249,0,1,0-.043-6.3l-2.733-6.521,1.366-7.432c.018,0,.034.006.052.006a3.3,3.3,0,1,0-1.068-.194l-1.422,7.736,2.854,6.809a3.23,3.23,0,0,0,.04,5.5l-2.893,7,1.4,7.624a3.216,3.216,0,0,0-1.667,4.753l-4.108,3.567.678.78,4.113-3.571a3.242,3.242,0,1,0,2.071-5.731c-.025,0-.047.007-.072.008l-1.347-7.318Z" transform="translate(-42.351 -6.022)" class="cls-1"/>
    <circle cx="4.082" cy="4.082" r="4.082" transform="translate(144.531 73.98)" class="cls-1"/>
    <circle cx="4.082" cy="4.082" r="4.082" transform="translate(144.531 54.628)" class="cls-1"/>
  </g>
</svg>
