<?xml version="1.0" encoding="UTF-8"?>
<svg id="Ebene_1" data-name="Ebene 1" xmlns="http://www.w3.org/2000/svg" viewBox="0 0 600 600">
  <defs>
    <style>
      .cls-1 {
        fill: #6da7fd;
      }

      .cls-2 {
        fill: #593369;
      }
    </style>
  </defs>
  <g id="djNZuo">
    <g>
      <path class="cls-1" d="m292.54762,236.66323c14.79123-.04322,29.58246-.11015,44.37371-.12381,19.97947-.01846,39.9589.00577,59.93837.00774,4.92202.00049,5.66768-.77149,5.6705-5.72677.01404-24.9105-.10123-49.82223.11856-74.73095.08979-10.16888,7.10823-21.9469,19.59416-25.05425,7.81043-1.94381,15.63073-2.14805,23.19868.75395,8.9359,3.42655,14.01209,10.24503,16.47845,19.42637,1.79927,6.69791,1.25301,13.4398,1.25755,20.16576.06157,91.04572.03679,182.09151.06291,273.13726.00227,7.80918-1.33668,15.2298-6.14227,21.58704-4.17436,5.52216-9.82008,8.89184-16.60363,10.35564-1.92515.41543-3.81013,1.33835-5.73198,1.39436-10.27813.29928-18.81361-3.59067-24.70126-12.00198-4.35838-6.22654-6.04396-13.44623-5.99782-21.19389.15891-26.68047.07042-53.36261.01774-80.04391-.00283-1.43091-.54052-2.86066-.82924-4.29097.30521-1.15572.61043-2.31139,1.0133-3.8369-2.16036,0-3.53646.00019-4.91252,0-28.06324-.00398-56.12677.05462-84.18939-.07589-4.50584-.02094-9.00805-.88423-13.5114-1.36332-2.61412-.27802-5.23793-.49359-7.83647-.87835-1.4392-.21307-2.83539-.71685-4.29901-1.10221,0-4.27941-.15055-8.19952.05145-12.10138.14123-2.72795.66389-5.45077,1.19396-8.14087,1.03475-5.25141,2.19404-10.47834,3.30178-15.71542,15.72255.05742,31.44536.07369,47.16754.18267,19.59362.13584,39.18667.35384,58.78013.51439,1.31676.01079,2.63504-.16338,4.10459-.26171,0-12.50567-.01844-24.50973.01862-36.51364.00602-1.94254-.78731-2.7419-2.72172-2.69075-3.28527.08696-6.57368.08277-9.86066.07459-15.04152-.03739-30.08299-.08948-45.12451-.1363-.07107-1.19672-.14218-2.39344-.22442-3.7779-5.85899,0-11.28678.00039-16.71459-.00007-10.37278-.0009-20.74584.04452-31.11821-.02215-5.64481-.03628-8.45776-3.5827-7.52945-8.92925.24343-1.40219.03035-3.06036-.51587-4.37552-.60306-1.45185-.53554-2.54762.14547-3.88949.61168-1.20529.82176-2.60794,1.35185-3.86317.41953-.99334.87098-2.09383,1.63059-2.80009,2.20655-2.05162,2.72448-3.70301,1.71189-6.5347-.88358-2.47076-1.74578-4.94917-2.61741-7.42416Z"/>
      <path class="cls-1" d="m294.06378,317.1105c-1.10774,5.23705-2.26703,10.46398-3.30178,15.7154-.53007,2.6901-1.05273,5.41292-1.19396,8.14087-.20199,3.90186-.05145,7.82197-.05145,12.10138,1.46362.38536,2.85981.88914,4.29901,1.10221,2.59854.38476,5.22234.60033,7.83647.87835,4.50334.47909,9.00555,1.34238,13.5114,1.36332,28.06262.13051,56.12614.0719,84.18939.07589,1.37606.00019,2.75216,0,4.91252,0-.40288,1.52551-.70809,2.68119-1.0133,3.8369-.71536-.07176-1.43073-.14348-2.14609-.21515-.25235-.04193-.50471-.08381-.75706-.12574-1.51226.08126-3.02453.23289-4.53684.23368-66.15947.03433-132.31892.05597-198.4784.07681q-6.49479.00204-6.49856,6.6991c.00042,27.07144.1151,54.14357-.04485,81.21408-.07237,12.24836-5.94593,21.33464-16.93769,26.5918-4.91773,2.35207-10.5391,3.88726-16.0173,2.96629-4.91504-.82637-9.68261-2.81535-13.77945-5.96919-7.47939-5.75765-11.54445-13.21621-11.54461-22.77078-.0016-96.9005-.01224-193.80102-.01486-290.70154-.00002-.7559.07574-1.51178.1161-2.26768.08574-.06454.25387-.15302.24326-.18948-.05123-.17603-.15057-.33806-.23285-.50505-.33338-7.34521,3.55551-12.77098,8.29125-17.68986,3.02195-3.13879,6.59198-5.95543,10.95533-6.56397,5.16828-.72079,10.48129-.94514,15.69471-.67467,7.96693.41332,13.31054,5.27449,17.40964,11.70393,2.47926,3.88872,3.52835,8.3061,3.55249,12.77734.13454,24.9131.10046,49.82733.05615,74.74105-.01246,7.01047.02634,6.90364,6.84749,6.90042,30.98418-.01471,61.96836-.01223,92.95254-.00827,1.38838.00019,2.77676.07515,4.16514.11529.87163,2.47502,1.73383,4.95343,2.61741,7.42419,1.01259,2.83168.49465,4.48307-1.71189,6.5347-.75961.70626-1.21106,1.80675-1.63059,2.80009-.53009,1.25523-.74017,2.65788-1.35185,3.86317-.68101,1.34187-.74853,2.43764-.14547,3.88949.54622,1.31516.75931,2.97334.51587,4.37552-.92831,5.34655,1.88463,8.89297,7.52945,8.92925,10.37237.06667,20.74543.02124,31.11821.02215,5.42781.00046,10.8556.00007,16.71459.00007.08223,1.38447.15335,2.58119.22442,3.7779-2.27345.04248-4.54692.1221-6.82036.12203-48.06176-.00174-96.12352-.01348-144.18528-.01937-3.83649-.00049-5.93585,2.44669-5.31773,6.04016.33507,1.94801.67612,3.92458.6976,5.8917.08147,7.46137.11406,14.92554-.01156,22.38565-.04153,2.46666.8158,3.37602,3.26187,3.41093,16.77971.23957,33.55779.59305,50.33736.84328,4.67196.0697,9.34755-.14828,14.02092-.12446,11.88456.06051,23.76884.18311,35.6532.28085Z"/>
      <path class="cls-2" d="m132.62287,155.36196c.08228.16699.18162.32903.23285.50505.01061.03646-.15752.12495-.24326.18948-.16253-.23401-.15906-.46551.01041-.69454Z"/>
      <path class="cls-2" d="m400.34891,359.98397c.25235.04188.50471.08376.75706.12569-.25235-.04193-.50471-.08381-.75706-.12569Z"/>
    </g>
  </g>
</svg>