<svg id="Ebene_1" data-name="Ebene 1" xmlns="http://www.w3.org/2000/svg" viewBox="0 0 600 600">
  <defs>
    <style>
      .cls-1 {
        fill: #6da7fd;
      }
    </style>
  </defs>
  <path class="cls-1" d="M299.57819,117.745c78.75181-.11306,148.08367,45.46356,175.84913,117.6975C499.864,299.0163,488.52444,358.29071,448.163,412.04373c-29.15632,38.83016-68.56518,62.17491-116.52326,69.67476C223.5,498.62976,137.22018,430.51286,115.98083,336.32429c-18.73966-83.10336,26.83368-165.8325,101.99185-200.60949A190.08714,190.08714,0,0,1,299.57819,117.745Zm.18879,60.20552c-66.98479.03991-121.86748,55.25505-121.91535,122.65385-.04817,67.846,54.64176,123.08463,121.90576,123.12879,66.99441.044,121.91933-55.73179,121.9757-123.86519C421.78836,233.00625,366.67081,177.9107,299.767,177.95054Z"/>
</svg>
