<svg id="Ebene_1" data-name="Ebene 1" xmlns="http://www.w3.org/2000/svg" viewBox="0 0 600 600">
  <defs>
    <style>
      .cls-1 {
        fill: #6da7fd;
      }
    </style>
  </defs>
  <g>
    <path class="cls-1" d="M299.97474,399.18727A145.16035,145.16035,0,0,1,154.37893,254.63638c-.51194-69.75027,52.8934-145.57039,146.27584-145.24154,88.7586.31256,144.89626,70.71962,145.07225,145.296C445.91538,334.50435,380.36189,399.22407,299.97474,399.18727Zm.30642-44.67974c55.66573-.12968,100.5558-44.9333,100.43532-100.2419-.11988-55.035-45.73444-100.21707-100.98512-100.02757A100.33456,100.33456,0,0,0,199.574,254.81707C199.66242,310.39008,244.36144,354.63785,300.28116,354.50753Z"/>
    <path class="cls-1" d="M430.235,386.86219c7.20244,13.70824,14.12766,26.88887,21.5386,40.99391-26.9226,11.43583-53.0221,22.52442-79.12356,33.60836-21.5369,9.14561-43.00338,18.46342-64.68166,27.26369-3.88361,1.57658-9.33751,2.65408-12.89951,1.17493C246.478,469.7255,198.09263,449.057,148.22643,427.90275L169.679,386.92423c4.61454,1.82322,8.77236,3.34425,12.833,5.08947,35.70052,15.34375,71.23532,31.08887,107.21739,45.74552,6.03456,2.45809,14.83881,2.33287,20.90851-.1401,35.59382-14.50229,70.7519-30.06489,106.06791-45.24459C420.8839,390.57874,425.129,388.93759,430.235,386.86219Z"/>
  </g>
</svg>
