<svg xmlns="http://www.w3.org/2000/svg" width="320" height="320" viewBox="-25 -25 320 320" xml:space="preserve">
  <g style="stroke:none">
    <path d="m173.15 317.3 35.47-199.52c33.82 0 44.48 3.7 46.02 18.84 0 0 22.69-8.46 34.13-25.63-44.65-20.7-89.5-21.62-89.5-21.62l-26.18 31.88h.06l-26.18-31.89s-44.86.94-89.5 21.62c11.43 17.18 34.12 25.64 34.12 25.64 1.55-15.14 12.2-18.85 45.8-18.87l35.76 199.55" style="fill:#fff;fill-opacity:1;stroke:none" transform="translate(-45.84 -64.3)"/>
    <path d="M173.13 80.16c36.1-.28 77.4 5.58 119.69 24.01 5.65-10.17 7.1-14.67 7.1-14.67-46.22-18.29-89.51-24.55-126.8-24.7-37.27.15-80.56 6.41-126.78 24.7 0 0 2.06 5.54 7.1 14.67 42.28-18.43 83.6-24.29 119.69-24.01" style="fill:#fff;fill-opacity:1;stroke:none" transform="translate(-45.84 -64.3)"/>
  </g>
</svg>
