<svg xmlns="http://www.w3.org/2000/svg" width="16" height="199" fill="none"><path fill="#A7B1C3" d="M8.5 8a.5.5 0 0 0-1 0h1ZM8 171l2.887-5H5.113L8 171ZM7.5 9.51a.5.5 0 0 0 1 0h-1Zm1 3.018a.5.5 0 1 0-1 0h1Zm-1 3.018a.5.5 0 0 0 1 0h-1Zm1 3.019a.5.5 0 0 0-1 0h1Zm-1 3.018a.5.5 0 1 0 1 0h-1Zm1 3.019a.5.5 0 1 0-1 0h1Zm-1 3.018a.5.5 0 0 0 1 0h-1Zm1 3.019a.5.5 0 1 0-1 0h1Zm-1 3.018a.5.5 0 0 0 1 0h-1Zm1 3.019a.5.5 0 0 0-1 0h1Zm-1 3.018a.5.5 0 1 0 1 0h-1Zm1 3.019a.5.5 0 1 0-1 0h1Zm-1 3.018a.5.5 0 0 0 1 0h-1Zm1 3.019a.5.5 0 0 0-1 0h1Zm-1 3.019a.5.5 0 1 0 1 0h-1Zm1 3.018a.5.5 0 0 0-1 0h1Zm-1 3.019a.5.5 0 1 0 1 0h-1Zm1 3.018a.5.5 0 1 0-1 0h1Zm-1 3.019a.5.5 0 0 0 1 0h-1Zm1 3.018a.5.5 0 0 0-1 0h1Zm-1 3.019a.5.5 0 1 0 1 0h-1Zm1 3.018a.5.5 0 0 0-1 0h1Zm-1 3.019a.5.5 0 1 0 1 0h-1Zm1 3.018a.5.5 0 1 0-1 0h1Zm-1 3.019a.5.5 0 0 0 1 0h-1Zm1 3.018a.5.5 0 0 0-1 0h1Zm-1 3.019a.5.5 0 1 0 1 0h-1Zm1 3.018a.5.5 0 0 0-1 0h1Zm-1 3.019a.5.5 0 1 0 1 0h-1Zm1 3.018a.5.5 0 1 0-1 0h1Zm-1 3.019a.5.5 0 0 0 1 0h-1Zm1 3.018a.5.5 0 0 0-1 0h1Zm-1 3.019a.5.5 0 0 0 1 0h-1Zm1 3.018a.5.5 0 0 0-1 0h1Zm-1 3.019a.5.5 0 0 0 1 0h-1Zm1 3.018a.5.5 0 0 0-1 0h1Zm-1 3.019a.5.5 0 0 0 1 0h-1Zm1 3.018a.5.5 0 0 0-1 0h1Zm-1 3.019a.5.5 0 0 0 1 0h-1Zm1 3.018a.5.5 0 0 0-1 0h1Zm-1 3.019a.5.5 0 0 0 1 0h-1Zm1 3.018a.5.5 0 0 0-1 0h1Zm-1 3.019a.5.5 0 0 0 1 0h-1Zm1 3.019a.5.5 0 1 0-1 0h1Zm-1 3.018a.5.5 0 0 0 1 0h-1Zm1 3.019a.5.5 0 1 0-1 0h1Zm-1 3.018a.5.5 0 0 0 1 0h-1Zm1 3.019a.5.5 0 1 0-1 0h1Zm-1 3.018a.5.5 0 0 0 1 0h-1Zm1 3.019a.5.5 0 0 0-1 0h1Zm-1 3.018a.5.5 0 0 0 1 0h-1Zm1 3.019a.5.5 0 0 0-1 0h1Zm-1 3.018a.5.5 0 0 0 1 0h-1Zm1 3.019a.5.5 0 0 0-1 0h1ZM7.5 8v1.51h1V8h-1Zm0 4.528v3.018h1v-3.018h-1Zm0 6.037v3.018h1v-3.018h-1Zm0 6.037v3.018h1v-3.018h-1Zm0 6.037v3.018h1V30.64h-1Zm0 6.037v3.018h1v-3.018h-1Zm0 6.037v3.018h1v-3.018h-1Zm0 6.037v3.019h1V48.75h-1Zm0 6.037v3.019h1v-3.019h-1Zm0 6.037v3.019h1v-3.019h-1Zm0 6.037v3.019h1V66.86h-1Zm0 6.037v3.019h1v-3.019h-1Zm0 6.037v3.019h1v-3.019h-1Zm0 6.037v3.019h1v-3.019h-1Zm0 6.037v3.019h1v-3.019h-1Zm0 6.037v3.019h1v-3.019h-1Zm0 6.037v3.019h1v-3.019h-1Zm0 6.037v3.019h1v-3.019h-1Zm0 6.037v3.019h1v-3.019h-1Zm0 6.037v3.019h1v-3.019h-1Zm0 6.037v3.019h1v-3.019h-1Zm0 6.037v3.019h1v-3.019h-1Zm0 6.038v3.018h1v-3.018h-1Zm0 6.037v3.018h1v-3.018h-1Zm0 6.037v3.018h1v-3.018h-1Zm0 6.037v3.018h1v-3.018h-1Zm0 6.037v3.018h1v-3.018h-1Z"/><path fill="#9198A6" d="M8 16A8 8 0 1 0 8 0a8 8 0 0 0 0 16Z"/><path fill="#005FCC" d="M8 61.5a8 8 0 1 0 0-16 8 8 0 0 0 0 16Z"/><path fill="#9198A6" d="M8 198.5a8 8 0 1 0 0-16 8 8 0 0 0 0 16Z"/></svg>