<svg xmlns="http://www.w3.org/2000/svg" width="566" height="16" fill="none"><path fill="#A7B1C3" d="M12.25 7.5a.5.5 0 0 0 0 1v-1Zm520 .5-5-2.887v5.774l5-2.887Zm-518.506.5a.5.5 0 0 0 0-1v1Zm2.989-1a.5.5 0 0 0 0 1v-1Zm2.988 1a.5.5 0 0 0 0-1v1Zm2.989-1a.5.5 0 0 0 0 1v-1Zm2.988 1a.5.5 0 0 0 0-1v1Zm2.989-1a.5.5 0 0 0 0 1v-1Zm2.988 1a.5.5 0 0 0 0-1v1Zm2.989-1a.5.5 0 0 0 0 1v-1Zm2.988 1a.5.5 0 0 0 0-1v1Zm2.989-1a.5.5 0 0 0 0 1v-1Zm2.988 1a.5.5 0 0 0 0-1v1Zm2.989-1a.5.5 0 0 0 0 1v-1Zm2.988 1a.5.5 0 0 0 0-1v1Zm2.989-1a.5.5 0 0 0 0 1v-1Zm2.988 1a.5.5 0 0 0 0-1v1Zm2.989-1a.5.5 0 0 0 0 1v-1Zm2.988 1a.5.5 0 0 0 0-1v1Zm2.989-1a.5.5 0 0 0 0 1v-1Zm2.988 1a.5.5 0 1 0 0-1v1Zm2.989-1a.5.5 0 0 0 0 1v-1Zm2.988 1a.5.5 0 1 0 0-1v1Zm2.989-1a.5.5 0 0 0 0 1v-1Zm2.988 1a.5.5 0 1 0 0-1v1Zm2.989-1a.5.5 0 0 0 0 1v-1Zm2.988 1a.5.5 0 1 0 0-1v1Zm2.989-1a.5.5 0 0 0 0 1v-1Zm2.988 1a.5.5 0 1 0 0-1v1Zm2.989-1a.5.5 0 0 0 0 1v-1Zm2.988 1a.5.5 0 1 0 0-1v1Zm2.989-1a.5.5 0 0 0 0 1v-1Zm2.988 1a.5.5 0 1 0 0-1v1Zm2.989-1a.5.5 0 0 0 0 1v-1Zm2.988 1a.5.5 0 1 0 0-1v1Zm2.989-1a.5.5 0 0 0 0 1v-1Zm2.988 1a.5.5 0 1 0 0-1v1Zm2.989-1a.5.5 0 0 0 0 1v-1Zm2.988 1a.5.5 0 1 0 0-1v1Zm2.989-1a.5.5 0 0 0 0 1v-1Zm2.988 1a.5.5 0 1 0 0-1v1Zm2.989-1a.5.5 0 0 0 0 1v-1Zm2.988 1a.5.5 0 1 0 0-1v1Zm2.989-1a.5.5 0 0 0 0 1v-1Zm2.988 1a.5.5 0 1 0 0-1v1Zm2.989-1a.5.5 0 0 0 0 1v-1Zm2.988 1a.5.5 0 1 0 0-1v1Zm2.989-1a.5.5 0 0 0 0 1v-1Zm2.988 1a.5.5 0 1 0 0-1v1Zm2.989-1a.5.5 0 0 0 0 1v-1Zm2.988 1a.5.5 0 1 0 0-1v1Zm2.989-1a.5.5 0 0 0 0 1v-1Zm2.989 1a.5.5 0 0 0 0-1v1Zm2.988-1a.5.5 0 0 0 0 1v-1Zm2.989 1a.5.5 0 0 0 0-1v1Zm2.988-1a.5.5 0 0 0 0 1v-1Zm2.989 1a.5.5 0 0 0 0-1v1Zm2.988-1a.5.5 0 0 0 0 1v-1Zm2.989 1a.5.5 0 0 0 0-1v1Zm2.988-1a.5.5 0 0 0 0 1v-1Zm2.989 1a.5.5 0 0 0 0-1v1Zm2.988-1a.5.5 0 0 0 0 1v-1Zm2.989 1a.5.5 0 0 0 0-1v1Zm2.988-1a.5.5 0 0 0 0 1v-1Zm2.989 1a.5.5 0 0 0 0-1v1Zm2.988-1a.5.5 0 0 0 0 1v-1Zm2.989 1a.5.5 0 0 0 0-1v1Zm2.988-1a.5.5 0 0 0 0 1v-1Zm2.989 1a.5.5 0 0 0 0-1v1Zm2.988-1a.5.5 0 0 0 0 1v-1Zm2.989 1a.5.5 0 0 0 0-1v1Zm2.988-1a.5.5 0 0 0 0 1v-1Zm2.989 1a.5.5 0 0 0 0-1v1Zm2.988-1a.5.5 0 0 0 0 1v-1Zm2.989 1a.5.5 0 0 0 0-1v1Zm2.988-1a.5.5 0 0 0 0 1v-1Zm2.989 1a.5.5 0 0 0 0-1v1Zm2.988-1a.5.5 0 0 0 0 1v-1Zm2.989 1a.5.5 0 0 0 0-1v1Zm2.988-1a.5.5 0 0 0 0 1v-1Zm2.989 1a.5.5 0 0 0 0-1v1Zm2.988-1a.5.5 0 0 0 0 1v-1Zm2.989 1a.5.5 0 0 0 0-1v1Zm2.988-1a.5.5 0 0 0 0 1v-1Zm2.989 1a.5.5 0 0 0 0-1v1Zm2.988-1a.5.5 0 0 0 0 1v-1Zm2.989 1a.5.5 0 0 0 0-1v1Zm2.988-1a.5.5 0 0 0 0 1v-1Zm2.989 1a.5.5 0 0 0 0-1v1Zm2.988-1a.5.5 0 0 0 0 1v-1Zm2.989 1a.5.5 0 0 0 0-1v1Zm2.988-1a.5.5 0 0 0 0 1v-1Zm2.989 1a.5.5 0 0 0 0-1v1Zm2.988-1a.5.5 0 0 0 0 1v-1Zm2.989 1a.5.5 0 0 0 0-1v1Zm2.988-1a.5.5 0 0 0 0 1v-1Zm2.989 1a.5.5 0 0 0 0-1v1Zm2.988-1a.5.5 0 0 0 0 1v-1Zm2.989 1a.5.5 0 0 0 0-1v1Zm2.988-1a.5.5 0 0 0 0 1v-1Zm2.989 1a.5.5 0 0 0 0-1v1Zm2.988-1a.5.5 0 0 0 0 1v-1Zm2.989 1a.5.5 0 0 0 0-1v1Zm2.988-1a.5.5 0 0 0 0 1v-1Zm2.989 1a.5.5 0 0 0 0-1v1Zm2.988-1a.5.5 0 0 0 0 1v-1Zm2.989 1a.5.5 0 0 0 0-1v1Zm2.988-1a.5.5 0 0 0 0 1v-1Zm2.989 1a.5.5 0 0 0 0-1v1Zm2.988-1a.5.5 0 0 0 0 1v-1Zm2.989 1a.5.5 0 0 0 0-1v1Zm2.988-1a.5.5 0 0 0 0 1v-1Zm2.989 1a.5.5 0 0 0 0-1v1Zm2.988-1a.5.5 0 0 0 0 1v-1Zm2.989 1a.5.5 0 0 0 0-1v1Zm2.988-1a.5.5 0 0 0 0 1v-1Zm2.989 1a.5.5 0 0 0 0-1v1Zm2.988-1a.5.5 0 0 0 0 1v-1Zm2.989 1a.5.5 0 0 0 0-1v1Zm2.988-1a.5.5 0 0 0 0 1v-1Zm2.989 1a.5.5 0 0 0 0-1v1Zm2.988-1a.5.5 0 0 0 0 1v-1Zm2.989 1a.5.5 0 0 0 0-1v1Zm2.988-1a.5.5 0 0 0 0 1v-1Zm2.989 1a.5.5 0 0 0 0-1v1Zm2.988-1a.5.5 0 0 0 0 1v-1Zm2.989 1a.5.5 0 0 0 0-1v1Zm2.988-1a.5.5 0 0 0 0 1v-1Zm2.989 1a.5.5 0 0 0 0-1v1Zm2.988-1a.5.5 0 0 0 0 1v-1Zm2.989 1a.5.5 0 0 0 0-1v1Zm2.988-1a.5.5 0 0 0 0 1v-1Zm2.989 1a.5.5 0 0 0 0-1v1Zm2.988-1a.5.5 0 0 0 0 1v-1Zm2.989 1a.5.5 0 0 0 0-1v1Zm2.988-1a.5.5 0 0 0 0 1v-1Zm2.989 1a.5.5 0 0 0 0-1v1Zm2.988-1a.5.5 0 0 0 0 1v-1Zm2.989 1a.5.5 0 0 0 0-1v1Zm2.988-1a.5.5 0 0 0 0 1v-1Zm2.989 1a.5.5 0 0 0 0-1v1Zm2.988-1a.5.5 0 0 0 0 1v-1Zm2.989 1a.5.5 0 0 0 0-1v1Zm2.988-1a.5.5 0 0 0 0 1v-1Zm2.989 1a.5.5 0 0 0 0-1v1Zm2.988-1a.5.5 0 0 0 0 1v-1Zm2.989 1a.5.5 0 0 0 0-1v1Zm2.988-1a.5.5 0 0 0 0 1v-1Zm2.989 1a.5.5 0 0 0 0-1v1Zm2.988-1a.5.5 0 0 0 0 1v-1Zm2.989 1a.5.5 0 0 0 0-1v1Zm2.988-1a.5.5 0 0 0 0 1v-1Zm2.989 1a.5.5 0 0 0 0-1v1Zm2.988-1a.5.5 0 0 0 0 1v-1Zm2.989 1a.5.5 0 0 0 0-1v1Zm2.988-1a.5.5 0 0 0 0 1v-1Zm2.989 1a.5.5 0 0 0 0-1v1Zm2.988-1a.5.5 0 0 0 0 1v-1Zm2.989 1a.5.5 0 0 0 0-1v1Zm2.988-1a.5.5 0 0 0 0 1v-1Zm2.988 1a.5.5 0 1 0 0-1v1Zm2.989-1a.5.5 0 0 0 0 1v-1Zm2.988 1a.5.5 0 1 0 0-1v1Zm2.989-1a.5.5 0 0 0 0 1v-1Zm2.988 1a.5.5 0 1 0 0-1v1Zm2.989-1a.5.5 0 0 0 0 1v-1Zm2.988 1a.5.5 0 1 0 0-1v1Zm2.989-1a.5.5 0 0 0 0 1v-1Zm2.988 1a.5.5 0 1 0 0-1v1Zm2.989-1a.5.5 0 0 0 0 1v-1Zm2.988 1a.5.5 0 1 0 0-1v1Zm2.989-1a.5.5 0 0 0 0 1v-1Zm2.988 1a.5.5 0 1 0 0-1v1Zm2.989-1a.5.5 0 0 0 0 1v-1Zm2.988 1a.5.5 0 1 0 0-1v1Zm2.989-1a.5.5 0 0 0 0 1v-1ZM12.25 8.5h1.494v-1H12.25v1Zm4.483 0h2.988v-1h-2.988v1Zm5.977 0h2.988v-1H22.71v1Zm5.977 0h2.988v-1h-2.988v1Zm5.977 0h2.988v-1h-2.988v1Zm5.977 0h2.988v-1h-2.988v1Zm5.977 0h2.988v-1h-2.988v1Zm5.977 0h2.988v-1h-2.988v1Zm5.977 0h2.988v-1h-2.988v1Zm5.977 0h2.988v-1h-2.988v1Zm5.977 0h2.988v-1h-2.988v1Zm5.977 0h2.988v-1h-2.988v1Zm5.977 0h2.988v-1H82.48v1Zm5.977 0h2.988v-1h-2.988v1Zm5.977 0h2.988v-1h-2.988v1Zm5.977 0h2.988v-1h-2.988v1Zm5.977 0h2.988v-1h-2.988v1Zm5.977 0h2.988v-1h-2.988v1Zm5.977 0h2.988v-1h-2.988v1Zm5.977 0h2.988v-1h-2.988v1Zm5.977 0h2.988v-1h-2.988v1Zm5.977 0h2.988v-1h-2.988v1Zm5.977 0h2.988v-1h-2.988v1Zm5.977 0h2.988v-1h-2.988v1Zm5.977 0h2.988v-1h-2.988v1Zm5.977 0h2.989v-1h-2.989v1Zm5.977 0h2.989v-1h-2.989v1Zm5.977 0h2.989v-1h-2.989v1Zm5.977 0h2.989v-1h-2.989v1Zm5.977 0h2.989v-1h-2.989v1Zm5.977 0h2.989v-1h-2.989v1Zm5.977 0h2.989v-1h-2.989v1Zm5.977 0h2.989v-1h-2.989v1Zm5.977 0h2.989v-1h-2.989v1Zm5.977 0h2.989v-1h-2.989v1Zm5.977 0h2.989v-1h-2.989v1Zm5.977 0h2.989v-1h-2.989v1Zm5.977 0h2.989v-1h-2.989v1Zm5.977 0h2.989v-1h-2.989v1Zm5.977 0h2.989v-1h-2.989v1Zm5.977 0h2.989v-1h-2.989v1Zm5.977 0h2.989v-1h-2.989v1Zm5.977 0h2.989v-1h-2.989v1Zm5.977 0h2.989v-1h-2.989v1Zm5.977 0h2.989v-1h-2.989v1Zm5.977 0h2.989v-1h-2.989v1Zm5.977 0h2.989v-1h-2.989v1Zm5.977 0h2.989v-1h-2.989v1Zm5.977 0h2.989v-1h-2.989v1Zm5.977 0h2.989v-1h-2.989v1Zm5.977 0h2.989v-1h-2.989v1Zm5.977 0h2.989v-1h-2.989v1Zm5.977 0h2.989v-1h-2.989v1Zm5.977 0h2.989v-1h-2.989v1Zm5.977 0h2.989v-1h-2.989v1Zm5.977 0h2.989v-1h-2.989v1Zm5.977 0h2.989v-1h-2.989v1Zm5.977 0h2.989v-1h-2.989v1Zm5.977 0h2.989v-1h-2.989v1Zm5.977 0h2.989v-1h-2.989v1Zm5.977 0h2.989v-1h-2.989v1Zm5.977 0h2.989v-1h-2.989v1Zm5.977 0h2.989v-1h-2.989v1Zm5.977 0h2.989v-1h-2.989v1Zm5.977 0h2.989v-1h-2.989v1Zm5.977 0h2.989v-1h-2.989v1Zm5.977 0h2.989v-1h-2.989v1Zm5.977 0h2.989v-1h-2.989v1Zm5.977 0h2.989v-1h-2.989v1Zm5.977 0h2.989v-1h-2.989v1Zm5.977 0h2.989v-1h-2.989v1Zm5.977 0h2.989v-1h-2.989v1Zm5.977 0h2.989v-1H441.1v1Zm5.977 0h2.989v-1h-2.989v1Zm5.977 0h2.989v-1h-2.989v1Zm5.977 0h2.989v-1h-2.989v1Zm5.977 0h2.989v-1h-2.989v1Zm5.977 0h2.989v-1h-2.989v1Zm5.977 0h2.989v-1h-2.989v1Zm5.977 0h2.988v-1h-2.988v1Zm5.977 0h2.988v-1h-2.988v1Zm5.977 0h2.988v-1h-2.988v1Zm5.977 0h2.988v-1h-2.988v1Zm5.977 0h2.988v-1h-2.988v1Zm5.977 0h2.988v-1h-2.988v1Zm5.977 0h2.988v-1h-2.988v1Zm5.977 0h2.988v-1h-2.988v1Z"/><path fill="#9198A6" d="M8.75 16a8 8 0 1 0 0-16 8 8 0 0 0 0 16Z"/><path fill="#005FCC" d="M227.75 16a8 8 0 1 0 0-16 8 8 0 0 0 0 16Z"/><path fill="#9198A6" d="M557.25 16a8 8 0 1 0 0-16 8 8 0 0 0 0 16Z"/></svg>