<?xml version="1.0" standalone="no"?>
<!DOCTYPE svg PUBLIC "-//W3C//DTD SVG 20010904//EN"
 "http://www.w3.org/TR/2001/REC-SVG-20010904/DTD/svg10.dtd">
<svg version="1.0" xmlns="http://www.w3.org/2000/svg"
 width="260.000000pt" height="260.000000pt" viewBox="0 0 260.000000 260.000000"
 preserveAspectRatio="xMidYMid meet">
<metadata>
Created by potrace 1.14, written by Peter Selinger 2001-2017
</metadata>
<g transform="translate(0.000000,260.000000) scale(0.100000,-0.100000)"
fill="#000000" stroke="none">
<path d="M1095 2554 c-275 -49 -495 -163 -691 -358 -183 -184 -297 -395 -350
-651 -19 -95 -26 -332 -12 -430 47 -324 248 -655 508 -840 l55 -39 -60 60
c-135 132 -239 338 -296 579 -34 146 -33 396 1 520 75 270 238 453 502 563 94
39 109 40 67 5 -75 -63 -157 -169 -207 -268 -37 -73 -88 -223 -97 -285 -4 -25
-10 -61 -14 -80 -12 -58 -13 -271 -1 -361 33 -252 146 -504 300 -672 56 -61
166 -145 251 -191 62 -34 166 -72 175 -64 2 3 -4 15 -13 27 -48 69 -81 157
-104 273 -10 56 -13 193 -4 243 3 17 7 45 11 63 32 195 180 406 334 480 132
62 289 81 402 48 214 -62 252 -330 92 -649 -92 -185 -206 -321 -359 -429 l-70
-50 40 7 c66 12 237 71 306 105 145 73 322 214 431 346 100 120 200 325 239
489 26 112 31 160 33 300 2 149 -10 234 -49 363 -41 139 -53 161 -88 167 -18
3 -45 8 -62 11 -53 10 -298 12 -365 3 -409 -55 -750 -291 -944 -652 -86 -160
-131 -311 -145 -492 l-7 -90 -14 75 c-15 80 -19 277 -8 375 20 175 109 405
218 565 189 277 512 492 840 559 93 19 103 21 165 27 33 4 62 9 65 11 13 13
-173 151 -279 206 -238 125 -544 175 -796 131z"/>
</g>
</svg>
