<?xml version="1.0" encoding="utf-8"?>
<svg version="1.1" xmlns="http://www.w3.org/2000/svg" xmlns:xlink="http://www.w3.org/1999/xlink" viewBox="-10 -10 80 80" xml:space="preserve">
	<defs>
		<style>
		.cls-1 {
			fill: url(#gradient);
		}
		</style>
		<linearGradient id="gradient" x1="40" y1="00" x2="40" y2="60" gradientUnits="userSpaceOnUse">
			<stop offset="0" stop-color="#0799db" />
			<stop offset="1" stop-color="#24edd5" />
		</linearGradient>
	</defs>
	<path class="cls-1" d="M52.305,30.37c0,5.826,0,11.654,0,17.48c0,1.871-1.277,3.146-3.153,3.146c-11.575,0-23.149,0-34.724,0
c-1.541-0.001-2.753-0.938-3.068-2.361c-0.057-0.256-0.066-0.516-0.066-0.775c0-11.666-0.001-23.331,0-34.994
c0-1.862,1.269-3.138,3.127-3.138c11.584-0.002,23.167-0.002,34.753,0c1.861,0,3.131,1.272,3.131,3.129
C52.305,18.696,52.305,24.533,52.305,30.37z M33.417,28.158c-0.021-0.005-0.043-0.01-0.062-0.015c0-0.739-0.007-1.478,0.005-2.217
c0.002-0.216-0.05-0.294-0.282-0.293c-1.882,0.009-3.764,0.008-5.646,0.001c-0.202,0-0.287,0.041-0.267,0.263
c0.024,0.29,0.015,0.581,0.016,0.871c0.021,5.726,0.013,11.452-0.028,17.178c-0.002,0.25,0.041,0.341,0.322,0.339
c1.862-0.015,3.724-0.013,5.586-0.002c0.243,0.001,0.299-0.072,0.299-0.306c-0.01-1.73-0.008-3.463-0.005-5.194
c0.003-1.802-0.005-3.604,0.02-5.405c0.014-1.169,0.58-2.072,1.514-2.728c1.826-1.283,4.148-0.436,4.748,1.707
c0.18,0.644,0.234,1.3,0.234,1.961c-0.002,3.214,0.002,6.428-0.007,9.642c0,0.235,0.044,0.326,0.306,0.324
c1.862-0.011,3.726-0.011,5.588,0c0.252,0.001,0.312-0.073,0.311-0.318c-0.008-3.514-0.006-7.026-0.004-10.541
c0-0.741-0.062-1.479-0.195-2.209c-0.258-1.41-0.746-2.724-1.705-3.816c-1.521-1.733-3.506-2.295-5.73-2.185
c-2.118,0.105-3.756,1.07-4.928,2.832C33.475,28.084,33.444,28.12,33.417,28.158z M23.721,34.979c0-2.992-0.004-5.985,0.006-8.979
c0.001-0.278-0.054-0.373-0.355-0.37c-1.832,0.015-3.663,0.015-5.495,0c-0.3-0.002-0.356,0.092-0.355,0.372
c0.007,5.977,0.007,11.953,0,17.928c0,0.266,0.053,0.355,0.341,0.354c1.841-0.014,3.684-0.016,5.525,0
c0.29,0.003,0.34-0.094,0.338-0.354C23.719,40.946,23.721,37.963,23.721,34.979z M20.661,23.086c0.233,0.008,0.511-0.02,0.788-0.068
c1.506-0.265,2.596-1.442,2.677-2.894c0.087-1.603-0.821-2.903-2.331-3.324c-0.616-0.172-1.241-0.186-1.872-0.087
c-2.056,0.322-3.254,2.299-2.575,4.254C17.806,22.288,19.036,23.086,20.661,23.086z" />
</svg>
