<?xml version="1.0" encoding="UTF-8"?>
<svg id="Ebene_1" xmlns="http://www.w3.org/2000/svg" xmlns:xlink="http://www.w3.org/1999/xlink" viewBox="0 0 500 500">
  <defs>
    <style>
      .cls-1 {
        fill: url(#gradient);
      }
    </style>
    <linearGradient id="gradient" x1="-727.97348" y1="803.20582" x2="-727.97348" y2="800.90304" gradientTransform="translate(67234.45147 85186.9475) scale(92.01496 -105.89923)" gradientUnits="userSpaceOnUse">
      <stop offset="0" stop-color="#0799db"/>
      <stop offset="1" stop-color="#24edd5"/>
    </linearGradient>
  </defs>
  <g transform="matrix(1, 0, 0, 1, 0, 0)">
    <path class="cls-1" d="M255.35047,128.27152c13.30084-.20264,26.51187-.10132,39.72288-.20264,.81287,15.54835,6.40172,31.40066,17.78434,42.37108,11.38263,11.2836,27.43758,16.46255,43.08725,18.19193v40.95718c-14.7477-.35711-29.26864-3.71039-42.67965-9.85588-5.71906-2.73165-11.22308-5.89241-16.46485-9.4552-.10132,29.67357,.10132,59.34715-.20264,88.91939-.77587,14.35836-5.52496,28.21895-13.71764,40.03607-13.69339,19.80528-35.99088,31.91624-60.05871,32.62113-14.54871,.66162-28.96984-2.97868-41.46149-10.46611-20.84958-12.38478-34.60686-33.90722-37.09312-58.02996-.20264-5.08223-.30397-10.16216-.10132-15.14075,4.18798-42.04328,41.66581-72.73106,83.7091-68.54309,1.6761,.16696,3.34624,.38923,5.00767,.66645,.20265,15.03943-.40759,30.08117-.40759,45.1206-18.17154-6.37521-38.07061,3.18759-44.44583,21.35913-.02168,.06181-.0432,.12368-.06454,.18563-2.13467,5.18355-1.52444,10.87371-1.42312,16.34971,2.43864,16.66519,18.4959,30.68909,35.56868,29.16466,11.5445-.33785,22.13553-6.48938,28.14914-16.34971,2.26637-3.18615,3.69997-6.88848,4.17033-10.77007,1.01553-18.19194,.61023-36.28024,.71155-54.46987,.10132-40.95488-.10132-81.80613,.20265-122.65738l.00691-.00231Z"/>
  </g>
</svg>
