<?xml version="1.0" encoding="utf-8"?>
<svg version="1.1" xmlns="http://www.w3.org/2000/svg" xmlns:xlink="http://www.w3.org/1999/xlink" viewBox="-15 -15 90 90" xml:space="preserve">
	<defs>
		<style>
		.cls-1 {
			fill: url(#gradient);
		}
		</style>
		<linearGradient id="gradient" x1="40" y1="00" x2="40" y2="60" gradientUnits="userSpaceOnUse">
			<stop offset="0" stop-color="#0799db" />
			<stop offset="1" stop-color="#24edd5" />
		</linearGradient>
	</defs>
	<path class="cls-1" d="M57.288,26.666c-0.16-2.476-0.271-4.954-0.488-7.426c-0.151-1.752-0.58-3.466-1.44-5.019
		c-1.091-1.979-2.821-3.154-5.05-3.385c-2.645-0.273-5.299-0.445-7.955-0.521c-4.784-0.134-9.574-0.229-14.359-0.213
		c-4.22,0.013-8.438,0.158-12.658,0.316c-1.943,0.072-3.901,0.183-5.817,0.5C7,11.332,5.31,12.885,4.386,15.274
		c-0.756,1.957-1.021,4.006-1.153,6.08c-0.096,1.466-0.166,2.935-0.255,4.405c-0.008,0.154-0.059,0.31-0.091,0.462
		c0,2.803,0,5.605,0,8.407c0.079,1.166,0.148,2.326,0.237,3.491c0.175,2.312,0.316,4.616,1.007,6.862
		c0.985,3.211,3.205,4.86,6.439,5.14c3.157,0.274,6.327,0.444,9.494,0.544c4.074,0.129,8.154,0.225,12.229,0.186
		c4.75-0.047,9.498-0.235,14.246-0.406c1.395-0.053,2.801-0.164,4.17-0.41c2.406-0.436,4.098-1.842,5.037-4.11
		c0.705-1.7,1.053-3.485,1.17-5.315c0.139-2.104,0.244-4.209,0.371-6.312c0.01-0.175,0.053-0.346,0.082-0.519
		c0-2.198,0-4.396,0-6.598C57.34,27.009,57.299,26.838,57.288,26.666z M24.58,40.737c0-6.875,0-13.639,0-20.511
		c5.707,3.424,11.344,6.807,17.094,10.254C35.947,33.917,30.312,37.299,24.58,40.737z" />
</svg>
